<?xml version="1.0" encoding="utf-8"?>
<!-- Generator: Adobe Illustrator 23.0.4, SVG Export Plug-In . SVG Version: 6.00 Build 0)  -->
<svg version="1.1" id="レイヤー_1" xmlns="http://www.w3.org/2000/svg" xmlns:xlink="http://www.w3.org/1999/xlink" x="0px"
	 y="0px" viewBox="0 0 43.9 43.9" style="enable-background:new 0 0 43.9 43.9;" xml:space="preserve">
<style type="text/css">
	.st0{opacity:0.7;}
	.st1{fill:#291D41;}
	.st2{opacity:0.7;fill:#D9BEFA;}
	.st3{fill:#666666;}
	.st4{fill:#D5BAFA;}
</style>
<g class="st0">
	<polygon class="st1" points="16.9,18.7 14.8,24.9 19.1,24.9 	"/>
	<path class="st1" d="M6.3,37.5h31v-31h-31V37.5z M24,24.7c0-3.2,2.2-4.9,4.3-4.9c2.1,0,4.3,1.7,4.3,4.9c0,0,0,0,0,0c0,0,0,0,0,0.1
		c0,0.6-0.5,1-1,1h-5.5c0.3,0.9,0.9,1.6,1.8,1.9c1,0.3,2,0.1,2.5-0.6c0.3-0.4,1-0.5,1.4-0.2c0.4,0.3,0.5,1,0.2,1.4
		c-0.8,1-2,1.6-3.2,1.6c-0.5,0-1-0.1-1.5-0.3c-1.6-0.5-3.3-2.1-3.3-4.8C24,24.8,24,24.8,24,24.7C24,24.7,24,24.7,24,24.7z
		 M11.4,28.5L16,15.4c0,0,0,0,0-0.1c0,0,0-0.1,0.1-0.1c0-0.1,0.1-0.1,0.1-0.2c0,0,0.1-0.1,0.1-0.1c0.1,0,0.1-0.1,0.2-0.1
		c0,0,0,0,0,0c0,0,0.1,0,0.1,0c0.1,0,0.1,0,0.2,0c0.1,0,0.1,0,0.2,0c0,0,0.1,0,0.1,0c0,0,0,0,0,0c0.1,0,0.1,0.1,0.2,0.1
		c0,0,0.1,0,0.1,0.1c0.1,0.1,0.1,0.1,0.1,0.2c0,0,0.1,0.1,0.1,0.1c0,0,0,0,0,0.1l4.6,13.1c0.2,0.5-0.1,1.1-0.6,1.3
		c-0.1,0-0.2,0.1-0.3,0.1c-0.4,0-0.8-0.3-0.9-0.7l-0.8-2.3c-0.1,0-0.2,0.1-0.3,0.1h-5.4l-0.8,2.3c-0.1,0.4-0.5,0.7-0.9,0.7
		c-0.1,0-0.2,0-0.3-0.1C11.5,29.6,11.2,29,11.4,28.5z"/>
	<path class="st1" d="M28.3,21.8c-0.9,0-1.9,0.6-2.2,2h4.4C30.1,22.4,29.2,21.8,28.3,21.8z"/>
</g>
<path class="st2" d="M41.8,2.1H2.1v39.7h39.8V2.1z M39.5,38.5c0,0.5-0.5,1-1,1h-33c-0.6,0-1-0.4-1-1v-33c0-0.6,0.4-1,1-1h33
	c0.6,0,1,0.4,1,1V38.5z"/>
<path class="st3" d="M42.8,0.1H1.1c-0.6,0-1,0.4-1,1v41.7c0,0.6,0.4,1,1,1h41.7c0.6,0,1-0.4,1.1-0.9V1.1C43.8,0.5,43.4,0.1,42.8,0.1
	z M41.8,41.8H2.1V2.1h39.8V41.8z"/>
<path class="st3" d="M38.5,4.5h-33c-0.6,0-1,0.4-1,1v33c0,0.6,0.4,1,1,1h33c0.5,0,1-0.5,1-1v-33C39.5,4.9,39.1,4.5,38.5,4.5z
	 M37.3,37.5h-31v-31h31V37.5z"/>
<g>
	<path class="st4" d="M27.3,29.6c0.5,0.2,1,0.3,1.5,0.3c1.2,0,2.4-0.6,3.2-1.6c0.3-0.4,0.2-1.1-0.2-1.4c-0.4-0.3-1.1-0.2-1.4,0.2
		c-0.5,0.7-1.5,0.9-2.5,0.6c-0.9-0.3-1.5-1-1.8-1.9h5.5c0.5,0,1-0.4,1-1c0,0,0,0,0-0.1c0,0,0,0,0,0c0-3.2-2.2-4.9-4.3-4.9
		c-2.1,0-4.3,1.7-4.3,4.9c0,0,0,0,0,0c0,0,0,0,0,0.1C24,27.5,25.7,29.1,27.3,29.6z M28.3,21.8c0.9,0,1.9,0.6,2.2,2h-4.4
		C26.4,22.4,27.3,21.8,28.3,21.8z"/>
	<path class="st4" d="M12,29.8c0.1,0,0.2,0.1,0.3,0.1c0.4,0,0.8-0.3,0.9-0.7l0.8-2.3h5.4c0.1,0,0.2,0,0.3-0.1l0.8,2.3
		c0.1,0.4,0.5,0.7,0.9,0.7c0.1,0,0.2,0,0.3-0.1c0.5-0.2,0.8-0.8,0.6-1.3l-4.6-13.1c0,0,0,0,0-0.1c0,0,0-0.1-0.1-0.1
		c0-0.1-0.1-0.1-0.1-0.2c0,0-0.1-0.1-0.1-0.1c-0.1,0-0.1-0.1-0.2-0.1c0,0,0,0,0,0c0,0-0.1,0-0.1,0c-0.1,0-0.1,0-0.2,0
		c-0.1,0-0.1,0-0.2,0c0,0-0.1,0-0.1,0c0,0,0,0,0,0c-0.1,0-0.1,0.1-0.2,0.1c0,0-0.1,0-0.1,0.1c-0.1,0.1-0.1,0.1-0.1,0.2
		c0,0-0.1,0.1-0.1,0.1c0,0,0,0,0,0.1l-4.6,13.1C11.2,29,11.5,29.6,12,29.8z M16.9,18.7l2.2,6.2h-4.3L16.9,18.7z"/>
</g>
</svg>
