<?xml version="1.0" encoding="utf-8"?>
<!-- Generator: Adobe Illustrator 23.0.6, SVG Export Plug-In . SVG Version: 6.00 Build 0)  -->
<svg version="1.1" id="レイヤー_1" xmlns="http://www.w3.org/2000/svg" xmlns:xlink="http://www.w3.org/1999/xlink" x="0px"
	 y="0px" viewBox="0 0 43.9 43.9" style="enable-background:new 0 0 43.9 43.9;" xml:space="preserve">
<style type="text/css">
	.st0{fill:#E05933;stroke:#666666;stroke-width:2;stroke-linecap:round;stroke-linejoin:round;stroke-miterlimit:10;}
	.st1{fill:#EE7A69;stroke:#666666;stroke-width:2;stroke-linecap:round;stroke-linejoin:round;stroke-miterlimit:10;}
	.st2{fill:#9766F6;stroke:#666666;stroke-width:2;stroke-linecap:round;stroke-linejoin:round;stroke-miterlimit:10;}
	.st3{fill:#5ECA8A;stroke:#666666;stroke-width:2;stroke-linecap:round;stroke-linejoin:round;stroke-miterlimit:10;}
	.st4{fill:#55BBF8;stroke:#666666;stroke-width:2;stroke-linecap:round;stroke-linejoin:round;stroke-miterlimit:10;}
</style>
<path class="st0" d="M28.9,15H15c-3.8,0-7-3.1-7-7v0c0-3.8,3.1-7,7-7h14c3.8,0,7,3.1,7,7v0C35.9,11.9,32.8,15,28.9,15z"/>
<path class="st1" d="M28.9,1.1h-7V15h7c3.8,0,7-3.1,7-7v0C35.9,4.2,32.8,1.1,28.9,1.1z"/>
<path class="st2" d="M22,28.9h-7c-3.8,0-7-3.1-7-7v0c0-3.8,3.1-7,7-7h7V28.9z"/>
<path class="st3" d="M15,42.8L15,42.8c-3.9,0-7-3.1-7-7v0c0-3.8,3.1-7,7-7h7v7C22,39.7,18.8,42.8,15,42.8z"/>
<circle class="st4" cx="28.9" cy="22" r="7"/>
</svg>
