<?xml version="1.0" encoding="utf-8"?>
<!-- Generator: Adobe Illustrator 23.0.4, SVG Export Plug-In . SVG Version: 6.00 Build 0)  -->
<svg version="1.1" id="レイヤー_1" xmlns="http://www.w3.org/2000/svg" xmlns:xlink="http://www.w3.org/1999/xlink" x="0px"
	 y="0px" viewBox="0 0 43.9 43.9" style="enable-background:new 0 0 43.9 43.9;" xml:space="preserve">
<style type="text/css">
	.st0{opacity:0.7;}
	.st1{fill:#D25836;}
	.st2{fill:#DE6D3C;}
	.st3{fill:none;stroke:#666666;stroke-width:2;stroke-linecap:round;stroke-linejoin:round;stroke-miterlimit:10;}
	.st4{fill:none;stroke:#FFFFFF;stroke-width:2;stroke-linecap:round;stroke-linejoin:round;stroke-miterlimit:10;}
</style>
<g id="Guides_to_delete" class="st0">
	<g>
		<polygon class="st1" points="7.1,38.5 3.8,1.3 40.1,1.3 36.8,38.5 21.9,42.6 		"/>
		<polygon class="st2" points="21.9,4.3 21.9,39.4 34,36.1 36.8,4.3 		"/>
	</g>
</g>
<g id="Guides_to_delete_1_">
	<g>
		<polygon class="st3" points="7,38.4 3.6,1.2 40,1.2 36.7,38.4 21.8,42.5 		"/>
		<polygon class="st3" points="21.8,4.3 21.8,39.4 33.9,36 36.7,4.3 		"/>
		<polygon class="st3" points="7,4.3 9.8,36 21.8,39.4 21.8,4.3 		"/>
	</g>
</g>
<g>
	<polyline class="st4" points="14.7,16.7 11.2,22 14.7,27.2 	"/>
	<polyline class="st4" points="29.2,27.2 32.7,22 29.2,16.7 	"/>
	<line class="st4" x1="19" y1="27.2" x2="24.9" y2="16.7"/>
</g>
</svg>
