<?xml version="1.0" encoding="utf-8"?>
<!-- Generator: Adobe Illustrator 23.0.4, SVG Export Plug-In . SVG Version: 6.00 Build 0)  -->
<svg version="1.1" id="レイヤー_1" xmlns="http://www.w3.org/2000/svg" xmlns:xlink="http://www.w3.org/1999/xlink" x="0px"
	 y="0px" viewBox="0 0 43.9 43.9" style="enable-background:new 0 0 43.9 43.9;" xml:space="preserve">
<style type="text/css">
	.st0{opacity:0.69;fill:#F08231;enable-background:new    ;}
	.st1{fill:#666666;}
	.st2{opacity:0.69;}
	.st3{fill:#241502;}
	.st4{fill:#EF8232;}
</style>
<g>
	<path class="st0" d="M2,2.1v39.7h39.8V2.1H2z M38,38.1H5.4V5.6H38V38.1z"/>
	<path class="st1" d="M42.7,0.1H1c-0.6,0-1,0.4-1,1v41.8c0,0.6,0.4,1,1,1h41.8c0.6,0,1-0.4,1-1V1.1C43.7,0.5,43.3,0.1,42.7,0.1z
		 M41.7,41.8H2V2.1h39.8L41.7,41.8L41.7,41.8z"/>
	<path class="st1" d="M5.3,39.5h33c0.6,0,1-0.4,1-1v-33c0-0.6-0.4-1-1-1h-33c-0.6,0-1,0.4-1,1v33C4.3,39,4.8,39.5,5.3,39.5z
		 M6.3,6.4h31v31h-31C6.3,37.4,6.3,6.4,6.3,6.4z"/>
	<g class="st2">
		<polygon class="st3" points="16.4,24.9 20.8,24.9 18.6,18.6 		"/>
		<path class="st3" d="M19.6,15.4C19.5,15.3,19.5,15.4,19.6,15.4L19.6,15.4z"/>
		<path class="st3" d="M6.3,6.4v31h31v-31C37.3,6.4,6.3,6.4,6.3,6.4z M23.8,29.9C23.7,30,23.6,30,23.5,30c-0.4,0-0.8-0.3-0.9-0.7
			L21.8,27h-5.5c-0.1,0-0.2-0.1-0.3-0.1l-0.8,2.3c-0.1,0.4-0.5,0.7-0.9,0.7c-0.1,0-0.2-0.1-0.3-0.1c-0.5-0.2-0.8-0.8-0.6-1.3
			L18,15.4c0-0.1,0.1-0.1,0.1-0.2l0.1-0.1l0.1-0.1c0.1,0,0.1-0.1,0.2-0.1h0.1c0.1,0,0.1,0,0.2,0s0.1,0,0.2,0h0.1
			c0.1,0,0.1,0.1,0.2,0.1l0.1,0.1c0,0,0.1,0,0.1,0.1c0,0,0,0.1,0.1,0.2l4.8,13.2C24.6,29.1,24.3,29.6,23.8,29.9z M28.8,28.9
			c0,0.6-0.4,1-1,1s-1-0.4-1-1v-8.2c0-0.6,0.4-1,1-1c0.5,0,1,0.4,1,1V28.9z M27.8,18.1c-0.6,0-1-0.4-1-1s0.4-1,1-1c0.5,0,1,0.5,1,1
			C28.8,17.8,28.4,18.1,27.8,18.1z"/>
		<path class="st4" d="M19.6,15.4C19.5,15.4,19.5,15.3,19.6,15.4c-0.1-0.1-0.1-0.2-0.1-0.2c0-0.1-0.1-0.1-0.1-0.1L19.3,15
			c-0.1,0-0.1-0.1-0.2-0.1H19c-0.1,0-0.1,0-0.2,0s-0.1,0-0.2,0h-0.1c-0.1,0-0.1,0.1-0.2,0.1l-0.1,0.1l-0.1,0.1
			c0,0.1-0.1,0.1-0.1,0.2l-4.6,13.1c-0.2,0.5,0.1,1.1,0.6,1.3c0.1,0,0.2,0.1,0.3,0.1c0.4,0,0.8-0.3,0.9-0.7l0.8-2.3
			c0.1,0,0.2,0.1,0.3,0.1h5.5l0.8,2.3c0.1,0.4,0.5,0.7,0.9,0.7c0.1,0,0.2,0,0.3-0.1c0.5-0.2,0.8-0.8,0.6-1.3L19.6,15.4z M16.4,24.9
			l2.2-6.2l2.2,6.2C20.8,24.9,16.4,24.9,16.4,24.9z"/>
		<path class="st4" d="M27.8,19.6c-0.6,0-1,0.4-1,1v8.2c0,0.6,0.4,1,1,1s1-0.4,1-1v-8.2C28.8,20.1,28.3,19.6,27.8,19.6z"/>
		<circle class="st4" cx="27.8" cy="17.1" r="1"/>
	</g>
</g>
</svg>
