<?xml version="1.0" encoding="utf-8"?>
<!-- Generator: Adobe Illustrator 23.0.4, SVG Export Plug-In . SVG Version: 6.00 Build 0)  -->
<svg version="1.1" id="レイヤー_1" xmlns="http://www.w3.org/2000/svg" xmlns:xlink="http://www.w3.org/1999/xlink" x="0px"
	 y="0px" viewBox="0 0 43.9 43.9" style="enable-background:new 0 0 43.9 43.9;" xml:space="preserve">
<style type="text/css">
	.st0{opacity:0.7;fill:#5DD0F6;}
	.st1{fill:#666666;}
	.st2{opacity:0.7;}
	.st3{fill:#0B2731;}
	.st4{fill:#5DD1FA;}
</style>
<path class="st0" d="M41.8,2.1H2.1v39.7h39.8V2.1z M39.5,38.5c0,0.5-0.5,1-1,1h-33c-0.6,0-1-0.4-1-1v-33c0-0.6,0.4-1,1-1h33
	c0.6,0,1,0.4,1,1V38.5z"/>
<path class="st1" d="M42.8,0.1H1.1c-0.6,0-1,0.4-1,1v41.7c0,0.6,0.4,1,1,1h41.7c0.6,0,1-0.4,1.1-0.9V1.1C43.8,0.5,43.4,0.1,42.8,0.1
	z M41.8,41.8H2.1V2.1h39.8V41.8z"/>
<path class="st1" d="M38.5,4.5h-33c-0.6,0-1,0.4-1,1v33c0,0.6,0.4,1,1,1h33c0.5,0,1-0.5,1-1v-33C39.5,4.9,39.1,4.5,38.5,4.5z
	 M37.3,37.5h-31v-31h31V37.5z"/>
<g class="st2">
	<path class="st3" d="M15.4,16.4v4.7c2.2,0.2,3.3-0.4,3.8-0.8c0.5-0.4,0.8-1,0.8-1.6c0-0.6-0.3-1.2-0.8-1.6
		C18.7,16.7,17.6,16.1,15.4,16.4z"/>
	<path class="st3" d="M6.3,6.5v31h31v-31H6.3z M20.5,21.9c-1,0.9-2.5,1.3-4.2,1.3c-0.3,0-0.6,0-1,0v5.4c0,0.6-0.4,1-1,1s-1-0.4-1-1
		V15.5c0,0,0-0.1,0-0.1c0-0.1,0-0.1,0-0.2c0-0.1,0-0.1,0.1-0.2c0-0.1,0.1-0.1,0.1-0.2c0,0,0.1-0.1,0.1-0.1c0,0,0.1-0.1,0.2-0.1
		c0.1,0,0.1-0.1,0.2-0.1c0,0,0.1,0,0.1,0c2.6-0.5,4.9-0.1,6.3,1.1c1,0.8,1.5,1.9,1.5,3.1C22,20,21.5,21.1,20.5,21.9z M29.7,27.8
		c-0.7,0.7-1.6,1.1-2.8,1.1c-0.5,0-1.1-0.1-1.7-0.3c-0.5-0.2-0.8-0.7-0.7-1.2c0.2-0.5,0.7-0.8,1.2-0.7c1.1,0.3,2,0.2,2.4-0.3
		c0.3-0.3,0.4-0.7,0.2-1.1c-0.2-0.5-0.7-0.7-1.4-0.8c0,0-0.1,0-0.1,0c-1.4-0.2-2.5-0.9-2.9-2.1c-0.4-1.1-0.2-2.3,0.6-3.2
		c1-1.1,2.6-1.4,4.5-0.9c0.5,0.2,0.8,0.7,0.7,1.2c-0.2,0.5-0.7,0.8-1.2,0.7c-1.1-0.3-2-0.2-2.4,0.3c-0.3,0.3-0.4,0.7-0.2,1.1
		c0.2,0.5,0.7,0.7,1.4,0.8c0,0,0.1,0,0.1,0c1.4,0.2,2.5,0.9,2.9,2.1C30.7,25.7,30.5,26.9,29.7,27.8z"/>
</g>
<g class="st2">
	<path class="st4" d="M14.2,14.5C14.2,14.5,14.2,14.6,14.2,14.5c-0.2,0.1-0.2,0.1-0.3,0.1c-0.1,0-0.1,0.1-0.2,0.1
		c0,0-0.1,0.1-0.1,0.1c0,0-0.1,0.1-0.1,0.2c0,0.1-0.1,0.1-0.1,0.2c0,0.1,0,0.1,0,0.2c0,0,0,0.1,0,0.1v13.1c0,0.6,0.4,1,1,1
		s1-0.4,1-1v-5.4c0.3,0,0.6,0,1,0c1.7,0,3.1-0.4,4.2-1.3c1-0.8,1.5-1.9,1.5-3.1c0-1.2-0.5-2.3-1.5-3.1C19.1,14.4,16.9,14,14.2,14.5z
		 M19.2,20.4c-0.5,0.4-1.6,1-3.8,0.8v-4.7c2.2-0.2,3.3,0.4,3.8,0.8c0.5,0.4,0.8,1,0.8,1.6C20,19.4,19.7,19.9,19.2,20.4z"/>
	<path class="st4" d="M27.4,22.6C27.3,22.6,27.3,22.6,27.4,22.6c-0.8-0.1-1.3-0.4-1.5-0.8c-0.1-0.4-0.1-0.8,0.2-1.1
		c0.5-0.5,1.4-0.6,2.4-0.3c0.5,0.2,1.1-0.1,1.2-0.7c0.2-0.5-0.1-1.1-0.7-1.2c-1.8-0.5-3.5-0.2-4.5,0.9c-0.8,0.9-1,2.1-0.6,3.2
		c0.4,1.1,1.5,1.9,2.9,2.1c0,0,0.1,0,0.1,0c0.7,0.1,1.2,0.4,1.4,0.8c0.1,0.4,0.1,0.8-0.2,1.1c-0.5,0.5-1.4,0.6-2.4,0.3
		c-0.5-0.2-1.1,0.1-1.2,0.7c-0.2,0.5,0.1,1.1,0.7,1.2c0.6,0.2,1.2,0.3,1.7,0.3c1.1,0,2.1-0.4,2.8-1.1c0.8-0.9,1-2.1,0.6-3.2
		C29.9,23.5,28.8,22.7,27.4,22.6z"/>
</g>
</svg>
