<?xml version="1.0" encoding="utf-8"?>
<!-- Generator: Adobe Illustrator 23.0.4, SVG Export Plug-In . SVG Version: 6.00 Build 0)  -->
<svg version="1.1" id="レイヤー_1" xmlns="http://www.w3.org/2000/svg" xmlns:xlink="http://www.w3.org/1999/xlink" x="0px"
	 y="0px" viewBox="0 0 43.9 43.9" style="enable-background:new 0 0 43.9 43.9;" xml:space="preserve">
<style type="text/css">
	.st0{opacity:0.7;}
	.st1{fill:#56332B;}
	.st2{fill:#EFCCA3;}
	.st3{fill:none;stroke:#666666;stroke-width:2;stroke-linecap:round;stroke-linejoin:round;stroke-miterlimit:10;}
	.st4{fill:none;}
	.st5{fill:#666666;}
	.st6{fill:#FFFFFF;}
</style>
<g class="st0">
	<path class="st1" d="M13.5,10.4c-1.9,0.2-4.2,0.4-5.6,1.2c-2.3,1.7-4.5,3.9-6.7,6.4c1.5,1.2,2.7,2.4,3.4,3.6c0.7,2,1.3,3.2,2.6,4.4
		"/>
	<path class="st1" d="M30.4,10.4c1.9,0.2,4.2,0.4,5.6,1.2c2.3,1.7,4.5,3.9,6.7,6.4c-1.5,1.2-2.7,2.4-3.5,3.6c-0.7,2-1.3,3.2-2.6,4.4
		"/>
	<g>
		<path class="st2" d="M36,23.4c-0.2-4.5-1-9-5.6-13c-3-1.1-5.9-1.9-8.5-2c-2.6,0.1-5.5,0.9-8.5,2c-4.6,4-5.4,8.5-5.6,13
			c-0.1,0.9-0.4,1.8-0.7,2.6c0.7,3.7,3,6.3,6.7,7.9c0,0,0.1,0,0.1,0c0,0,0-0.1,0-0.1c-5-6.6,2.3-13.9,8-14.8H22
			c5.7,0.9,13,8.2,8,14.8c0,0,0,0.1,0,0.1c0,0,0,0,0,0c3.7-1.6,6-4.2,6.7-7.9C36.4,25.2,36.1,24.3,36,23.4z"/>
		<path class="st1" d="M22,19L22,19c-5.8,0.9-13.1,8.2-8.1,14.8c0,0,0,0.1,0,0.1c2.7,0.7,5.4,1.2,8,1.6c2.6-0.4,5.4-0.9,8.1-1.6
			c0,0,0-0.1,0-0.1C35,27.2,27.7,19.9,22,19z"/>
	</g>
</g>
<path class="st3" d="M22,14.6"/>
<path class="st3" d="M22,9.2c-2.6,0.1-5.5,0.9-8.5,2c-4.6,4-5.4,8.5-5.6,13c-0.1,0.9-0.4,1.8-0.7,2.6c0.7,3.7,3,6.3,6.7,7.9
	c2.7,0.7,5.4,1.2,8,1.6"/>
<path class="st3" d="M13.6,11.2c-1.9,0.2-4.2,0.4-5.6,1.2c-2.3,1.7-4.5,3.9-6.7,6.4C2.8,20,4,21.2,4.7,22.4c0.7,2,1.3,3.2,2.6,4.4"
	/>
<path class="st3" d="M17.3,35.4c0.3-4.3,1.8-6.9,4.7-7.3"/>
<path class="st3" d="M14,34.6c-5-6.6,2.3-13.9,8-14.8"/>
<path class="st3" d="M22,13"/>
<path class="st3" d="M22,9.2c2.6,0.1,5.5,0.9,8.5,2c4.6,4,5.4,8.5,5.6,13c0.1,0.9,0.4,1.8,0.7,2.6c-0.7,3.7-3,6.3-6.7,7.9
	c-2.7,0.7-5.4,1.2-8,1.6"/>
<path class="st3" d="M30.5,11.2c1.9,0.2,4.2,0.4,5.6,1.2c2.3,1.7,4.5,3.9,6.7,6.4c-1.5,1.2-2.7,2.4-3.5,3.6c-0.7,2-1.3,3.2-2.6,4.4"
	/>
<path class="st3" d="M26.7,35.4c-0.3-4.3-1.8-6.9-4.7-7.3"/>
<path class="st3" d="M30.1,34.6c5-6.6-2.3-13.9-8-14.8"/>
<g>
	<path class="st4" d="M32.2,17.9c-0.5-0.4-1-0.6-1.7-0.6c0,0-0.1,0-0.1,0C31.1,17.3,31.7,17.5,32.2,17.9L32.2,17.9z"/>
	<path class="st4" d="M31.2,22.4c0.2,0,0.5-0.1,0.7-0.3c0.2-0.2,0.3-0.5,0.3-1s-0.1-0.9-0.3-1.1c-0.2-0.2-0.4-0.3-0.7-0.3
		c-0.2,0-0.4,0.1-0.6,0.3c-0.2,0.3-0.3,0.6-0.3,1.1c0,0.4,0.1,0.7,0.3,1C30.7,22.3,30.9,22.4,31.2,22.4z"/>
	<path class="st4" d="M22.4,22.1v-2.5h-0.6h-0.4V22c0,0.3,0,0.4,0,0.4s0.1,0,0.2,0C21.8,22.4,22.1,22.3,22.4,22.1z"/>
	<path class="st4" d="M12.8,19.6c-0.3,0-0.5,0.1-0.7,0.3c-0.2,0.3-0.3,0.6-0.3,1.1s0.1,0.8,0.3,1.1c0.2,0.3,0.4,0.4,0.7,0.4
		s0.5-0.1,0.7-0.3c0.2-0.3,0.3-0.7,0.3-1.2s-0.1-0.9-0.3-1.1S13.1,19.6,12.8,19.6z"/>
	<path class="st5" d="M15.6,24.4c0.3-0.3,0.6-0.7,0.9-1.1c0.3-0.6,0.4-1.3,0.4-2c0,0,0-0.1,0-0.1c0,0.7-0.1,1.4-0.4,2
		C16.3,23.7,16,24.1,15.6,24.4z"/>
	<path class="st5" d="M15.2,17.8c-0.5-0.3-1.1-0.5-1.7-0.5c-0.8,0-1.5,0.3-2.1,1v-0.9H8v1.7h1v7.2H7.9V28h5v-1.6h-1.5V24
		c0.6,0.6,1.3,0.9,2.1,0.9c0.7,0,1.2-0.2,1.7-0.5s0.8-0.7,1.1-1.3c0.3-0.5,0.4-1.2,0.4-1.9c0-0.8-0.2-1.4-0.4-2
		C16,18.6,15.7,18.1,15.2,17.8z M13.9,22.5c-0.3,0.3-0.6,0.5-1.1,0.5s-0.8-0.1-1.1-0.6c-0.3-0.4-0.4-0.8-0.4-1.4
		c0-0.6,0.1-1.1,0.4-1.4s0.7-0.5,1.1-0.5c0.5,0,0.8,0.2,1.1,0.5c0.3,0.3,0.4,0.8,0.4,1.4C14.3,21.7,14.1,22.2,13.9,22.5z"/>
	<path class="st6" d="M16.5,18.9c-0.3-0.7-0.7-1.2-1.2-1.6c-0.4-0.3-1.1-0.5-1.8-0.5c-0.6,0-1.2,0.2-1.7,0.5v-0.4h-0.5H7.9H7.4v0.5
		v1.7v0.5h0.5h0.5v6.2H7.7H7.2v0.5V28v0.5h0.5h5h0.5V28v-1.7v-0.5h-0.5h-1V25c0.5,0.3,1.1,0.4,1.6,0.4c0.7,0,1.4-0.2,1.9-0.6
		c0.2-0.1,0.3-0.2,0.4-0.4c-0.1,0.1-0.2,0.2-0.3,0.3c-0.5,0.4-1.1,0.5-1.8,0.5s-1.3-0.2-1.9-0.6v1.6H13v2.2H7.5v-0.1v-2.2h1.2v-6.7
		h-1v-2.2h3.9v0.6c0.6-0.5,1.2-0.7,1.9-0.7s1.3,0.2,1.8,0.6c0.5,0.4,0.9,0.9,1.2,1.5c0.3,0.6,0.4,1.2,0.4,2c0,0,0-0.1,0-0.1
		C16.9,20.3,16.8,19.6,16.5,18.9z"/>
	<path class="st6" d="M12.8,19.4c-0.4,0-0.7,0.1-0.9,0.4c-0.2,0.3-0.3,0.7-0.3,1.3c0,0.5,0.1,0.9,0.4,1.2c0.2,0.3,0.5,0.5,0.9,0.5
		c0.4,0,0.7-0.1,0.9-0.4s0.3-0.7,0.3-1.3c0-0.5-0.1-1-0.3-1.3C13.4,19.5,13.1,19.4,12.8,19.4z M13.5,22.2c-0.2,0.2-0.4,0.3-0.7,0.3
		s-0.5-0.1-0.7-0.4c-0.2-0.3-0.3-0.6-0.3-1.1s0.1-0.8,0.3-1.1c0.2-0.2,0.4-0.3,0.7-0.3s0.5,0.1,0.7,0.3s0.3,0.6,0.3,1.1
		S13.7,21.9,13.5,22.2z"/>
	<path class="st6" d="M12.8,19.1c-0.4,0-0.8,0.2-1.1,0.5s-0.4,0.8-0.4,1.4c0,0.6,0.1,1,0.4,1.4c0.3,0.5,0.6,0.6,1.1,0.6
		s0.8-0.2,1.1-0.5c0.2-0.3,0.4-0.8,0.4-1.5c0-0.6-0.1-1.1-0.4-1.4C13.6,19.3,13.3,19.1,12.8,19.1z M13.8,22.4
		c-0.2,0.3-0.5,0.4-0.9,0.4c-0.4,0-0.7-0.2-0.9-0.5c-0.3-0.3-0.4-0.7-0.4-1.2c0-0.6,0.1-1,0.3-1.3c0.2-0.3,0.5-0.4,0.9-0.4
		c0.3,0,0.6,0.1,1,0.4c0.2,0.3,0.3,0.8,0.3,1.3C14.1,21.7,14,22.1,13.8,22.4z"/>
	<path class="st6" d="M15.3,17.7c-0.5-0.4-1.1-0.6-1.8-0.6s-1.3,0.2-1.9,0.7v-0.6H7.7v2.2h1v6.7H7.5v2.2v0.1H13v-2.2h-1.4v-1.6
		c0.6,0.4,1.2,0.6,1.9,0.6s1.3-0.1,1.8-0.5c0.1-0.1,0.2-0.2,0.3-0.3c0.4-0.3,0.6-0.7,0.9-1.2c0.3-0.6,0.4-1.3,0.4-2
		c0-0.8-0.1-1.4-0.4-2C16.2,18.6,15.8,18.1,15.3,17.7z M16.3,23.1c-0.3,0.6-0.6,1-1.1,1.3s-1,0.5-1.7,0.5c-0.8,0-1.5-0.3-2.1-0.9
		v2.4h1.5V28h-5v-1.7H9v-7.2H8v-1.7h3.4v0.9c0.6-0.7,1.3-1,2.1-1c0.6,0,1.2,0.2,1.7,0.5c0.5,0.3,0.8,0.8,1.1,1.4
		c0.2,0.6,0.4,1.2,0.4,2C16.7,21.9,16.6,22.6,16.3,23.1z"/>
	<path class="st5" d="M25.3,17.4h-3.4v1.7H23v3.3c-0.5,0.3-0.9,0.5-1.3,0.5c-0.3,0-0.5-0.1-0.6-0.2c-0.1-0.1-0.2-0.4-0.2-0.7v-4.6
		h-3.4v1.7h1.1v3.5c0,0.7,0.2,1.2,0.6,1.6c0.4,0.4,1,0.6,1.7,0.6c0.7,0,1.4-0.2,2.1-0.7v0.6h3.5V23h-1.2V17.4z"/>
	<path class="st6" d="M25.8,22.5v-5.1v-0.5h-0.5h-3.5h-0.4h-0.5h-3.4H17v0.5v1.7v0.5h0.5h0.6v3c0,0.8,0.2,1.5,0.7,2s1.2,0.7,2,0.7
		c0.5,0,1.1-0.1,1.6-0.4v0.3H23h3.5H27v-0.5V23v-0.5h-0.5H25.8z M21.4,22v-2.4h0.4h0.6v2.5c-0.3,0.2-0.6,0.3-0.8,0.3
		c-0.1,0-0.2,0-0.2,0S21.4,22.3,21.4,22z M26.7,25h-4v-0.4c-0.6,0.3-1.3,0.5-1.9,0.5c-0.8,0-1.4-0.2-1.8-0.7
		c-0.4-0.4-0.7-1.1-0.7-1.8v-3.3h-1.1v-2.2h3.9V22c0,0.4,0.1,0.5,0.1,0.5c0.1,0.1,0.2,0.1,0.4,0.1c0.3,0,0.7-0.1,1-0.4v-2.9h-1.1
		v-2.2h4v5.6h1.2V25z"/>
	<path class="st6" d="M25.5,17.1h-4v2.2h1.1v2.9c-0.3,0.3-0.7,0.4-1,0.4c-0.2,0-0.3,0-0.4-0.1c0,0-0.1-0.1-0.1-0.5v-4.9h-3.9v2.2
		h1.1v3.3c0,0.7,0.3,1.4,0.7,1.8c0.4,0.5,1,0.7,1.8,0.7c0.6,0,1.3-0.2,1.9-0.5V25h4v-2.3h-1.2V17.1z M26.5,23v1.7H23v-0.6
		c-0.7,0.5-1.4,0.7-2.1,0.7c-0.7,0-1.3-0.2-1.7-0.6c-0.4-0.4-0.6-0.9-0.6-1.6v-3.5h-1.1v-1.7h3.4V22c0,0.3,0.1,0.6,0.2,0.7
		c0.1,0.1,0.3,0.2,0.6,0.2c0.4,0,0.8-0.2,1.3-0.5v-3.3h-1.1v-1.7h3.4V23H26.5z"/>
	<path class="st5" d="M27.7,19.1c-0.3,0.5-0.4,1.2-0.4,1.9c0,0.8,0.1,1.4,0.4,2c0.3,0.6,0.6,1,1.2,1.4c0.5,0.3,1,0.5,1.6,0.5
		c0.7,0,1.4-0.3,2.2-1v0.4c0,0.5-0.1,0.9-0.2,1.2c-0.1,0.3-0.3,0.6-0.6,0.7c-0.2,0.1-0.6,0.2-1.1,0.2c-0.6,0-1.2-0.2-1.8-0.6
		l-1.1,1.5c0.7,0.5,1.8,0.8,3.2,0.8c1.3,0,2.3-0.3,2.9-0.9c0.6-0.6,0.9-1.5,0.9-2.6v-5.5h1.2v-1.7h-3.5v0.9
		c-0.1-0.2-0.3-0.3-0.4-0.4v0c-0.5-0.4-1.1-0.6-1.8-0.6c-0.5,0-1,0.1-1.6,0.5C28.3,18.1,28,18.5,27.7,19.1z M30.2,19.6
		c0.2-0.3,0.6-0.5,1-0.5c0.5,0,0.8,0.2,1.1,0.5s0.4,0.8,0.4,1.4c0,0.6-0.1,1.1-0.4,1.4s-0.7,0.5-1.1,0.5c-0.5,0-0.8-0.1-1-0.6
		c-0.3-0.3-0.4-0.8-0.4-1.3C29.8,20.4,29.9,19.9,30.2,19.6z"/>
	<path class="st5" d="M27.3,23.3c-0.3-0.7-0.4-1.3-0.4-2.1c0,0,0,0.1,0,0.1C26.9,22.1,27,22.8,27.3,23.3c0.3,0.7,0.7,1.2,1.2,1.5
		C28,24.5,27.6,24,27.3,23.3z"/>
	<path class="st6" d="M35,24.8c0,1.2-0.3,2.2-1,2.8c-0.5,0.4-1.5,0.8-2.9,0.8c-1.5,0-2.6-0.3-3.4-0.8l-0.2-0.1l1.4-1.9l0.2,0.1
		c0.6,0.3,1.1,0.5,1.6,0.5c0.4,0,0.8-0.1,1-0.2c0.2-0.1,0.4-0.3,0.4-0.5c0.1-0.3,0.1-0.6,0.1-1c-0.7,0.5-1.3,0.8-2,0.8
		c-0.6,0-1.2-0.2-1.7-0.5c0.5,0.4,1.2,0.6,1.9,0.6c0.6,0,1.1-0.2,1.7-0.5c0,0.2-0.1,0.3-0.1,0.5c-0.1,0.2-0.2,0.3-0.3,0.4
		c-0.1,0.1-0.4,0.2-0.9,0.2s-1-0.2-1.5-0.5l-0.4-0.2l-0.3,0.4L27.5,27l-0.3,0.4l0.4,0.3c0.8,0.6,2,0.9,3.5,0.9c1.4,0,2.5-0.4,3.3-1
		c0.7-0.7,1.1-1.7,1.1-3v-5H35V24.8z"/>
	<path class="st6" d="M36.2,16.9h-3.5h-0.5v0.3c-0.5-0.3-1.1-0.4-1.7-0.4c-0.7,0-1.3,0.2-1.9,0.6c-0.6,0.4-1,0.9-1.3,1.5
		s-0.4,1.4-0.4,2.2c0,0,0,0.1,0,0.1c0-0.8,0.1-1.4,0.4-2c0.3-0.6,0.7-1.1,1.2-1.4c0.5-0.3,1.1-0.5,1.8-0.5c0,0,0.1,0,0.1,0
		c0,0,0.1,0,0.1,0c0.7,0,1.2,0.2,1.7,0.6v-0.5h0.4h3.5h0.1v2.2h0.5v-0.5v-1.7v-0.5H36.2z"/>
	<path class="st6" d="M31.2,22.6c0.4,0,0.6-0.1,0.9-0.4c0.2-0.3,0.4-0.7,0.4-1.2s-0.1-0.9-0.3-1.2c-0.4-0.2-0.7-0.4-1-0.4
		c-0.4,0-0.6,0.1-0.8,0.4c-0.2,0.3-0.3,0.7-0.3,1.2s0.1,0.9,0.3,1.2C30.6,22.5,30.9,22.6,31.2,22.6z M30.6,20
		c0.2-0.2,0.4-0.3,0.6-0.3c0.3,0,0.5,0.1,0.7,0.3c0.2,0.2,0.3,0.6,0.3,1.1s-0.1,0.8-0.3,1c-0.2,0.2-0.5,0.3-0.7,0.3
		c-0.3,0-0.5-0.1-0.6-0.3c-0.2-0.3-0.3-0.6-0.3-1C30.3,20.6,30.4,20.3,30.6,20z"/>
	<path class="st6" d="M36.1,17.4v1.7h-1.2v5.5c0,1.1-0.3,2-0.9,2.6c-0.6,0.6-1.6,0.9-2.9,0.9c-1.4,0-2.5-0.3-3.2-0.8l1.1-1.5
		c0.6,0.4,1.2,0.6,1.8,0.6c0.5,0,0.9-0.1,1.1-0.2c0.3-0.1,0.5-0.4,0.6-0.7c0.1-0.3,0.2-0.7,0.2-1.2v-0.4c-0.8,0.7-1.5,1-2.2,1
		c-0.6,0-1.1-0.2-1.6-0.5C28.3,24,28,23.6,27.7,23c-0.3-0.6-0.4-1.2-0.4-2c0-0.7,0.1-1.4,0.4-1.9c0.3-0.6,0.6-1,1.1-1.3
		c0.6-0.4,1-0.5,1.6-0.5c0,0-0.1,0-0.1,0c-0.7,0-1.3,0.2-1.8,0.5c-0.5,0.3-0.9,0.8-1.2,1.4c-0.3,0.6-0.4,1.2-0.4,2
		c0,0.8,0.1,1.4,0.4,2.1c0.3,0.7,0.7,1.2,1.2,1.5c0.5,0.3,1.1,0.5,1.7,0.5c0.7,0,1.3-0.3,2-0.8c0,0.4,0,0.7-0.1,1
		c0,0.2-0.2,0.4-0.4,0.5c-0.2,0.1-0.6,0.2-1,0.2c-0.5,0-1-0.2-1.6-0.5l-0.2-0.1l-1.4,1.9l0.2,0.1c0.8,0.5,1.9,0.8,3.4,0.8
		c1.4,0,2.4-0.4,2.9-0.8c0.7-0.6,1-1.6,1-2.8v-5.2h0.5h0.7v-2.2H36.1z"/>
	<path class="st6" d="M31.2,22.9c0.4,0,0.8-0.2,1.1-0.5s0.4-0.8,0.4-1.4c0-0.6-0.1-1.1-0.4-1.4s-0.6-0.5-1.1-0.5
		c-0.4,0-0.8,0.2-1,0.5c-0.3,0.3-0.4,0.8-0.4,1.4c0,0.5,0.1,1,0.4,1.3C30.4,22.8,30.7,22.9,31.2,22.9z M30.4,19.8
		c0.2-0.3,0.4-0.4,0.8-0.4c0.3,0,0.6,0.2,1,0.4c0.2,0.3,0.3,0.7,0.3,1.2s-0.2,0.9-0.4,1.2c-0.3,0.3-0.5,0.4-0.9,0.4
		c-0.3,0-0.6-0.1-0.8-0.4c-0.2-0.3-0.3-0.7-0.3-1.2S30.2,20.1,30.4,19.8z"/>
	<path class="st6" d="M32.6,17.4h-0.4v0.5c0.1,0.1,0.3,0.3,0.4,0.4V17.4z"/>
</g>
</svg>
