<?xml version="1.0" encoding="utf-8"?>
<!-- Generator: Adobe Illustrator 23.0.4, SVG Export Plug-In . SVG Version: 6.00 Build 0)  -->
<svg version="1.1" id="レイヤー_1" xmlns="http://www.w3.org/2000/svg" xmlns:xlink="http://www.w3.org/1999/xlink" x="0px"
	 y="0px" viewBox="0 0 43.9 43.9" style="enable-background:new 0 0 43.9 43.9;" xml:space="preserve">
<style type="text/css">
	.st0{opacity:0.7;fill:#3078B8;}
	.st1{opacity:0.7;fill:#F6C144;}
	.st2{fill:#666666;}
</style>
<path class="st0" d="M26.1,20.9c2.8,0,5-2.2,5-5v-5.2V5.7c0-0.5-0.4-1.1-1.1-1.8c-1.1-1-2.7-1.6-4.3-1.7c-2.1-0.2-4.2-0.2-6.4,0
	c-1.6,0.1-3.2,0.7-4.3,1.7c-0.7,0.6-1.1,1.3-1.1,1.8v4.5h8.7c0.6,0,1,0.4,1,1s-0.4,1-1,1h-8.7h-1H6.8c-1.7,0-3.1,4.3-3.1,9.5
	c0,5.2,1.4,9.5,3.1,9.5h4v-5.6c0,0,0,0,0,0v0c0-2.5,2-4.6,4.6-4.6H26.1z M17,9.2c-1.5,0-2.8-1.2-2.8-2.8s1.3-2.8,2.8-2.8
	s2.8,1.3,2.8,2.8S18.6,9.2,17,9.2z"/>
<path class="st1" d="M37.1,12.7h-4V16v0c0,3.9-3.1,7-7,7H15.4c-1.4,0-2.6,1.2-2.6,2.6v12.7c0,0.7,0.9,1.7,2.4,2.7
	c0.7,0.4,1.4,0.7,2.1,0.7c2.7,0.3,5.5,0.3,8.2,0c0.7-0.1,1.4-0.3,2.1-0.7C29.1,40,30,39,30,38.2v-4.5h-8.7c-0.6,0-1-0.4-1-1
	s0.4-1,1-1H30h1h6.1c1.7,0,3.1-4.3,3.1-9.5C40.3,17,38.9,12.7,37.1,12.7z M26.9,34.7c1.5,0,2.8,1.2,2.8,2.8s-1.2,2.8-2.8,2.8
	s-2.8-1.2-2.8-2.8S25.3,34.7,26.9,34.7z"/>
<g>
	<path class="st2" d="M17,3.7c-1.5,0-2.8,1.3-2.8,2.8s1.3,2.8,2.8,2.8s2.8-1.2,2.8-2.8S18.6,3.7,17,3.7z M17,7.2
		c-0.4,0-0.8-0.4-0.8-0.8c0-0.4,0.4-0.8,0.8-0.8c0.4,0,0.8,0.4,0.8,0.8C17.8,6.9,17.5,7.2,17,7.2z"/>
	<path class="st2" d="M37.1,10.7h-4V5.7c0-1.1-0.6-2.2-1.8-3.3c-1.5-1.3-3.4-2-5.5-2.2c-2.2-0.2-4.4-0.2-6.7,0
		c-2.1,0.2-4,0.9-5.4,2.2c-1.2,1.1-1.8,2.2-1.8,3.3v4.5H6.8c-1.2,0-2.9,0.7-4,4c-0.7,2-1.1,4.7-1.1,7.6C1.6,27,3,33.2,6.8,33.2h4
		v5.1c0,1.9,1.8,3.4,3.4,4.4c0.9,0.6,1.9,0.9,2.9,1c1.4,0.1,2.8,0.2,4.3,0.2c1.5,0,2.9-0.1,4.4-0.2c1-0.1,2-0.4,2.9-1
		c2.2-1.4,3.4-2.9,3.4-4.4v-4.5h5.1c3.8,0,5.1-6.2,5.1-11.5C42.3,16.9,40.9,10.7,37.1,10.7z M10.8,25.5L10.8,25.5
		C10.8,25.5,10.8,25.5,10.8,25.5l0,5.6h-4c-1.7,0-3.1-4.3-3.1-9.5c0-5.2,1.4-9.5,3.1-9.5h6.1h1h8.7c0.6,0,1-0.4,1-1s-0.4-1-1-1h-8.7
		V5.7c0-0.5,0.4-1.1,1.1-1.8c1.1-1,2.7-1.6,4.3-1.7c2.1-0.2,4.3-0.2,6.4,0c1.6,0.1,3.2,0.7,4.3,1.7c0.7,0.6,1.1,1.3,1.1,1.8v5.1V16
		c0,2.8-2.2,5-5,5H15.3C12.8,20.9,10.8,23,10.8,25.5z M37.1,31.8H31h-1h-8.7c-0.6,0-1,0.4-1,1s0.4,1,1,1H30v4.5
		c0,0.7-0.9,1.7-2.4,2.7c-0.7,0.4-1.4,0.6-2.1,0.7c-2.8,0.3-5.5,0.3-8.2,0c-0.7-0.1-1.4-0.3-2.1-0.7c-1.5-0.9-2.4-1.9-2.4-2.7V25.5
		c0-1.4,1.2-2.6,2.6-2.6h10.8c3.9,0,7-3.1,7-7v0v-3.2h4c1.7,0,3.1,4.3,3.1,9.5C40.3,27.5,38.9,31.8,37.1,31.8z"/>
	<path class="st2" d="M26.9,40.2c1.5,0,2.8-1.2,2.8-2.8s-1.2-2.8-2.8-2.8s-2.8,1.2-2.8,2.8S25.3,40.2,26.9,40.2z M26.9,36.7
		c0.4,0,0.8,0.4,0.8,0.8s-0.4,0.8-0.8,0.8s-0.8-0.4-0.8-0.8S26.4,36.7,26.9,36.7z"/>
</g>
</svg>
