<?xml version="1.0" encoding="utf-8"?>
<!-- Generator: Adobe Illustrator 23.0.4, SVG Export Plug-In . SVG Version: 6.00 Build 0)  -->
<svg version="1.1" id="レイヤー_1" xmlns="http://www.w3.org/2000/svg" xmlns:xlink="http://www.w3.org/1999/xlink" x="0px"
	 y="0px" viewBox="0 0 43.9 43.9" style="enable-background:new 0 0 43.9 43.9;" xml:space="preserve">
<style type="text/css">
	.st0{opacity:0.7;fill:#BF6E96;}
	.st1{fill:#666666;}
</style>
<g>
	<path class="st0" d="M6.3,37.9c-0.6,0-1.1,0-1.6-0.2c-0.6-0.1-1.2-0.5-1.6-1c-0.5-0.7-0.8-1.5-0.9-2.4c0-1.5,0.5-2.9,1.7-4.1
		c1-1.1,2.2-1.8,3.2-2.4c0.3-0.2,0.5-0.3,0.8-0.5c-0.2-0.1-0.7-0.5-0.7-0.5c-0.9-0.6-1.9-1.3-2.9-2.2c-1.1-0.9-1.9-1.8-2.4-2.7
		c-0.3-0.5-0.6-1.1-0.7-1.7c0-0.1,0-0.2-0.1-0.3c0-0.1,0-0.2,0-0.3v-0.8c0.1-0.9,0.3-1.7,0.8-2.5c0.4-0.8,1-1.6,1.7-2.4
		c0.8-0.9,1.7-1.7,2.7-2.5c0.9-0.7,1.8-1.3,2.9-1.9c1.1-0.6,2.2-1.2,3.4-1.7c0.9-0.4,1.5-0.6,2.2-0.8c1-0.3,2.1-0.6,3.2-0.7
		C18.4,6.1,18.8,6,19.3,6l1.4,0c0,0,0.1,0,0.2,0c1.3,0.1,2.5,0.3,3.5,0.7C25.7,7.3,26.6,8,27.3,9c0.4,0.7,0.7,1.4,0.8,2.3
		c0.1,1.5-0.2,3.1-1.1,4.6c-1.5,2.5-3.7,4.2-6.6,5.1c-0.3,0.1-0.6,0.2-0.9,0.2c0.5,0.2,0.9,0.5,1.2,1c0.2,0.4,0.3,0.8,0.3,1.2
		c0,0,0,0,0,0c0.2,0,0.3,0.1,0.5,0.2c0.2,0.1,0.4,0.3,0.6,0.6c0.2-0.5,1-2.3,1-2.3c0.1-0.3,0.2-0.7,0.3-1.1c0.1-0.6,0.5-1,1-1.1
		c0.5-0.1,0.9-0.2,1.4-0.2c0.2,0,0.5,0,0.7,0.1c0.2,0,0.4,0.1,0.5,0.2c0.7,0.3,0.9,1,0.7,1.7l-0.1,0.2c-0.1,0.4-0.2,0.7-0.3,1.1
		c0,0.1,0,0.2,0,0.3c0.3-0.6,0.7-1.2,1-1.9c0.1-0.2,0.1-0.4,0.2-0.7c0-0.2,0.1-0.3,0.1-0.4c0,0,0.1-0.4,0.1-0.4
		c0.1-0.5,0.5-0.8,0.9-1c0.5-0.2,1-0.2,1.5-0.2c0.3,0,0.6,0,0.8,0.1c0.2,0,0.5,0.2,0.7,0.3c0.5,0.4,0.7,0.9,0.5,1.5
		c-0.2,0.5-0.3,0.9-0.4,1.3c-0.1,0.3,0,0.7,0,1.1c0,0.3,0.2,0.6,0.3,1c0.6-0.2,1.2-0.4,1.8-0.5c0.5-0.1,1-0.1,1.4-0.1
		c1.5,0,2.8,0.4,4,1.1c1.2,0.8,2,1.9,2.3,3.2c0.1,0.2,0.1,0.5,0.1,0.7c0,0.1,0,0.3,0,0.3c0,1.2-0.5,2.2-1.5,3
		C41,31.7,40.6,32,40,32.1c0,0-0.2,0-0.2,0c-0.6,0-1-0.3-1.2-0.8c-0.2-0.5,0-1,0.4-1.3c0.1-0.1,0.2-0.2,0.3-0.2
		c0.3-0.2,0.5-0.4,0.6-0.7c0.1-0.2,0.1-0.5-0.2-1c-0.3-0.5-0.7-0.8-1.4-1.1c-0.5-0.2-1-0.3-1.7-0.4c-0.3,0-0.6-0.1-0.9-0.1l-0.1,0
		c-0.5,0-0.9,0.1-1.3,0.2c0,0.2,0.1,0.4,0.1,0.6c0,0.8-0.2,1.6-0.7,2.2c-0.7,0.9-1.6,1.6-2.7,2l-0.1,0c-0.3,0.1-0.6,0.2-0.9,0.3
		c-0.1,0-0.2,0-0.3,0c-0.6,0-1.1-0.2-1.5-0.6c-0.3,0.3-0.6,0.6-0.9,0.8c-0.9,0.6-1.9,1-2.9,1.1c-0.2,0-0.3,0-0.5,0
		c-0.2,0-0.4,0-0.6-0.1c-0.6-0.1-1.1-0.5-1.3-1c0-0.1,0-0.1-0.1-0.2c-0.4,0.6-0.8,1.1-1.3,1.4c-0.3,0.2-0.7,0.3-1.1,0.3
		c-0.6,0-1.1-0.3-1.5-0.7c-0.3,0.6-0.8,0.9-1.3,1.1c-0.3,0.1-0.6,0.2-0.9,0.2c-0.8,0-1.5-0.4-2-1c-0.2-0.3-0.4-0.6-0.5-1
		c-0.1,0.3-0.2,0.6-0.3,0.9c-0.9,2.3-2.6,3.8-5.1,4.5c-0.5,0.1-1,0.2-1.5,0.2L6.3,37.9z M6.8,33.6c0.2,0,0.3,0,0.6-0.1
		C8,33.3,8.5,32.9,9,32.3c0.6-0.7,0.9-1.5,1-2.4c-0.7,0.5-1.3,0.9-1.8,1.4c-0.6,0.5-1,1-1.2,1.5C6.8,33.2,6.8,33.4,6.8,33.6
		C6.8,33.6,6.8,33.6,6.8,33.6z M24.5,27c-0.2,0.4-0.4,0.8-0.6,1.2c0.2-0.2,0.4-0.5,0.6-0.8l0.1-0.2C24.6,27.3,24.6,27.2,24.5,27z
		 M29.7,25.6c-0.2,0.4-0.4,0.7-0.7,1.1c0.2-0.2,0.3-0.4,0.4-0.5c0.1-0.1,0.2-0.2,0.3-0.3C29.8,25.7,29.8,25.6,29.7,25.6z M20.5,10.4
		c-0.4,0-0.8,0-1.3,0.1c-0.9,0.1-1.8,0.3-2.8,0.6c-1.9,0.6-3.7,1.4-5.8,2.8c-1.2,0.7-2.2,1.5-2.9,2.3c-0.8,0.8-1.2,1.5-1.5,2.2
		c-0.3,0.9-0.3,1.7,0.1,2.4c0.2,0.5,0.6,0.9,1.1,1.4c0.6,0.6,1.2,1.1,1.9,1.6c0.3,0.3,0.7,0.5,1,0.8c0.3,0.3,0.7,0.6,1.1,1
		c1-0.6,2.1-1.1,3.1-1.7c0.7-0.9,1.4-1.6,2.3-2c0,0,0,0,0,0c-0.4,0-0.7,0-1.1,0c-0.8,0-1.5-0.1-2.1-0.2c-1.2-0.3-2.2-0.9-2.9-1.9
		c-0.3-0.3-0.4-0.7-0.5-1.1c-0.1-0.8,0.4-1.2,0.6-1.3c0.1-0.1,0.4-0.1,0.6-0.1c0.5,0,0.8,0.3,0.9,0.4c0.1,0.1,0.1,0.1,0.2,0.2
		c0,0,0.1,0.1,0.1,0.1c0.4,0.3,0.9,0.5,1.6,0.7c0.3,0,0.5,0.1,0.8,0.1c0.5,0,0.9-0.1,1.6-0.2c1.1-0.2,2.2-0.6,3.2-1.1
		c1.4-0.7,2.5-1.6,3.3-2.7c0.5-0.6,0.8-1.3,0.9-1.9c0.1-0.3,0.1-0.6,0-0.9c-0.1-0.2-0.2-0.5-0.6-0.7c-0.5-0.3-1-0.4-1.7-0.5
		C21.3,10.4,20.9,10.4,20.5,10.4z"/>
	<path class="st1" d="M20.7,7C20.7,7,20.8,7,20.7,7C21.9,7.1,23,7.3,24,7.7c1,0.4,1.9,1,2.5,1.9c0.4,0.6,0.6,1.2,0.6,1.9
		c0.1,1.4-0.3,2.8-1,4c-1.4,2.3-3.4,3.9-6,4.7c-1.1,0.3-2.2,0.6-3.3,0.7c-0.4,0-0.7,0-1,0c-0.6,0-1.2-0.1-1.9-0.2
		c-1-0.2-1.8-0.7-2.4-1.5c-0.2-0.2-0.3-0.4-0.3-0.7c0-0.1,0-0.2,0.1-0.3c0,0,0.1,0,0.1,0c0.1,0,0.1,0.1,0.2,0.1
		c0.1,0.1,0.2,0.2,0.3,0.3c0.6,0.5,1.3,0.8,2,0.9c0.3,0.1,0.7,0.1,1,0.1c0.6,0,1.2-0.1,1.7-0.2c1.2-0.2,2.4-0.6,3.5-1.2
		c1.4-0.7,2.7-1.7,3.6-3c0.5-0.7,0.9-1.4,1.1-2.3c0.1-0.4,0.1-0.9,0-1.3c-0.2-0.6-0.6-1-1.1-1.3c-0.6-0.4-1.3-0.5-2.1-0.6
		c-0.4-0.1-0.8-0.1-1.3-0.1c-0.5,0-0.9,0-1.4,0.1c-1,0.1-2,0.3-2.9,0.6C14,10.8,12,11.8,10.1,13c-1.1,0.7-2.2,1.5-3.1,2.5
		c-0.7,0.8-1.4,1.6-1.7,2.6c-0.4,1.1-0.4,2.1,0.2,3.1c0.3,0.6,0.8,1.2,1.3,1.6c0.9,0.9,2,1.6,3,2.4c0.5,0.4,1,0.8,1.5,1.3
		c0,0,0.1,0.1,0.1,0.1c0,0,0.1,0,0.1,0c1.2-0.7,2.5-1.4,3.8-2.1c0.1,0,0.1-0.1,0.2-0.1c0.7-0.9,1.5-1.6,2.5-2.1
		c0.3-0.1,0.6-0.2,1-0.2c0.1,0,0.2,0,0.3,0c0.3,0.1,0.6,0.3,0.8,0.6c0.1,0.3,0.2,0.5,0.2,0.8c0,0.4,0,0.7-0.1,1.1c0,0,0,0,0,0
		c0,0,0,0,0,0c0.2-0.2,0.4-0.2,0.5-0.2c0.2,0,0.4,0.1,0.5,0.2c0.2,0.1,0.3,0.3,0.2,0.6c-0.2,0.7-0.4,1.4-0.6,2.1
		c-0.2,0.6-0.3,1.3-0.4,1.9c-0.1,0.3-0.1,0.6,0,0.9c0,0,0,0.1,0,0.1c0,0,0,0,0,0c0,0,0.1,0,0.1-0.1c0.2-0.2,0.3-0.5,0.4-0.8
		c1.1-2.3,2.1-4.7,3.2-7c0.2-0.4,0.3-0.8,0.4-1.2c0-0.2,0.2-0.3,0.3-0.4c0.4-0.1,0.7-0.2,1.1-0.2c0.2,0,0.4,0,0.5,0
		c0.1,0,0.2,0,0.2,0.1c0.2,0.1,0.3,0.2,0.2,0.5c-0.2,0.5-0.3,0.9-0.4,1.4c-0.1,0.4,0,0.9,0,1.3c0.1,0.6,0.3,1.1,0.6,1.7
		c0.3-0.5,0.6-0.9,0.8-1.4c0.5-0.9,1-1.7,1.4-2.6c0.2-0.4,0.3-0.8,0.4-1.3c0-0.2,0.1-0.3,0.1-0.5c0-0.1,0.1-0.2,0.2-0.3
		c0.4-0.1,0.8-0.2,1.2-0.2c0.2,0,0.4,0,0.6,0.1c0.1,0,0.2,0.1,0.3,0.1c0.1,0.1,0.2,0.2,0.1,0.4c-0.2,0.5-0.3,1-0.4,1.5
		c-0.1,0.5,0,0.9,0,1.4c0.1,0.8,0.5,1.4,0.8,2.1c0,0,0,0.1,0.1,0.1c0,0,0,0,0.1,0c0.7-0.4,1.5-0.6,2.3-0.7c0.4-0.1,0.8-0.1,1.3-0.1
		c1.2,0,2.4,0.3,3.4,0.9c1,0.6,1.6,1.5,1.9,2.6c0,0.2,0.1,0.4,0.1,0.6c0,0.1,0,0.2,0,0.3c0,0.9-0.4,1.6-1.1,2.1
		c-0.2,0.2-0.5,0.3-0.8,0.4c0,0-0.1,0-0.1,0c0,0,0,0,0,0c-0.1,0-0.2,0-0.2-0.1c0-0.1,0-0.2,0.1-0.2c0.1-0.1,0.2-0.1,0.3-0.2
		c0.4-0.3,0.7-0.6,0.9-1.1c0.2-0.6,0.1-1.2-0.2-1.8c-0.4-0.8-1.1-1.2-1.8-1.6c-0.6-0.3-1.3-0.4-2-0.5c-0.3,0-0.6-0.1-1-0.1
		c-0.1,0-0.1,0-0.2,0c-0.8,0-1.6,0.1-2.4,0.4c-0.2,0.1-0.2,0.1-0.1,0.2c0.1,0.4,0.2,0.8,0.3,1.2c0,0.6-0.1,1.1-0.5,1.6
		c-0.6,0.8-1.3,1.3-2.3,1.6c-0.3,0.1-0.5,0.2-0.8,0.3c-0.1,0-0.1,0-0.2,0c-0.6,0-1-0.4-1-1c0-0.7,0.2-1.3,0.6-1.9
		c0.3-0.4,0.6-0.8,0.9-1.2c0.2-0.2,0.5-0.5,0.7-0.7C31,26,31,26,31,25.9c-0.2-0.3-0.3-0.6-0.4-0.9c-0.2-0.6-0.4-1.2-0.5-1.9
		c0,0,0-0.1,0-0.1c0,0,0,0.1-0.1,0.1c-0.6,1.3-1.3,2.5-2.1,3.6c-0.1,0.2-0.1,0.3-0.1,0.5c0.1,0.3,0.3,0.7,0.3,1.1
		c0.2,1.3-0.2,2.3-1.3,3c-0.7,0.5-1.6,0.8-2.5,0.9c-0.1,0-0.2,0-0.4,0c-0.1,0-0.3,0-0.4,0c-0.7-0.1-0.8-0.7-0.5-1.2
		c0.2-0.3,0.4-0.6,0.7-0.9c0.5-0.6,1.1-1.3,1.6-1.9c0.1-0.2,0.3-0.4,0.4-0.5c0.1-0.1,0.1-0.2,0-0.3c-0.2-0.4-0.5-0.9-0.6-1.4
		c-0.2-0.5-0.3-1.1-0.4-1.7c0,0,0-0.1,0-0.1c-0.1,0.2-0.2,0.5-0.3,0.7c-0.5,1.2-1,2.5-1.7,3.7c-0.5,1-1,1.9-1.6,2.9
		c-0.3,0.5-0.6,0.9-1,1.1c-0.2,0.1-0.4,0.2-0.6,0.2c-0.3,0-0.7-0.2-0.8-0.5c-0.2-0.3-0.2-0.7-0.3-1.1c0-0.5,0-0.9,0.1-1.4
		c0,0,0-0.1,0.1-0.2c0,0,0,0,0,0c0,0,0,0,0,0c0,0,0,0.1,0,0.1c-0.4,0.9-0.8,1.9-1.3,2.8c-0.2,0.3-0.4,0.6-0.8,0.8
		c-0.2,0.1-0.4,0.1-0.6,0.1c-0.4,0-0.8-0.2-1.2-0.6c-0.4-0.6-0.7-1.3-0.8-2c-0.1-0.4-0.2-0.9-0.1-1.3c0-0.9,0.2-1.8,0.5-2.7
		c0,0,0-0.1,0-0.1c-0.2,0.1-0.4,0.2-0.7,0.4c-0.4,0.2-0.8,0.5-1.3,0.7c-0.2,0.1-0.2,0.1-0.1,0.3c0.2,0.6,0.4,1.2,0.4,1.8
		c0.1,1.1-0.1,2.1-0.5,3.1c-0.8,2-2.3,3.3-4.4,3.9c-0.4,0.1-0.8,0.2-1.3,0.2c0,0-0.1,0-0.1,0c-0.5,0-0.9,0-1.4-0.1
		c-0.4-0.1-0.7-0.3-1-0.6c-0.4-0.5-0.6-1.2-0.6-1.8c0-1.3,0.5-2.4,1.4-3.3c0.9-0.9,1.9-1.6,3-2.3c0.6-0.4,1.2-0.7,1.9-1
		c0.3-0.2,0.3-0.1,0-0.3C9,26.8,8.4,26.4,7.8,26c-1-0.7-1.9-1.3-2.8-2.1c-0.9-0.7-1.6-1.5-2.2-2.5C2.4,21,2.2,20.5,2.1,20
		c0-0.1,0-0.3-0.1-0.4c0-0.3,0-0.6,0-0.8c0.1-0.7,0.3-1.4,0.7-2.1c0.4-0.8,1-1.6,1.6-2.2c0.8-0.9,1.6-1.7,2.6-2.4
		c0.9-0.7,1.8-1.3,2.8-1.8c1.1-0.6,2.2-1.2,3.3-1.6c0.7-0.3,1.4-0.6,2.1-0.8c1-0.3,2-0.6,3-0.7C18.5,7.1,18.9,7,19.3,7
		c0,0,0.1,0,0.1,0c0,0,0,0,0.1,0c0.1,0,0.1,0,0.2,0c0,0,0.1,0,0.1,0c0.2,0,0.3,0,0.5,0c0.1,0,0.1,0,0.2,0c0,0,0,0,0,0
		c0,0,0.1,0,0.1,0c0,0,0,0,0.1,0C20.6,7,20.6,7,20.7,7C20.7,7,20.7,7,20.7,7 M16.3,30.8c0.1,0,0.2-0.1,0.3-0.2
		c0.2-0.2,0.3-0.4,0.4-0.7c0.5-1.1,1-2.3,1.4-3.5c0.3-0.8,0.6-1.6,0.7-2.4c0-0.2-0.1-0.4-0.3-0.4c0,0-0.1,0-0.1,0
		c-0.1,0-0.2,0.1-0.3,0.1c-0.3,0.2-0.6,0.4-0.9,0.7c-1,1.4-1.7,2.9-1.7,4.6c0,0.1,0,0.3,0,0.4c0,0.4,0.1,0.7,0.2,1.1
		C16.1,30.8,16.2,30.8,16.3,30.8 M30.2,29.6c0,0,0.1,0,0.1,0c0.9-0.3,1.4-0.9,1.5-1.9c0-0.3,0-0.6-0.1-0.9c0,0,0,0-0.1,0
		c-0.6,0.5-1,1.1-1.3,1.8c-0.1,0.2-0.2,0.5-0.2,0.7C30.1,29.5,30.1,29.6,30.2,29.6 M6.8,34.6c0.3,0,0.6-0.1,0.9-0.2
		c0.8-0.3,1.5-0.8,2-1.5c0.8-0.9,1.2-2,1.2-3.2c0-0.5-0.1-0.9-0.2-1.3c0-0.1,0-0.1-0.1-0.1c0,0,0,0-0.1,0c-1.1,0.7-2.2,1.4-3.2,2.2
		c-0.6,0.5-1.2,1.1-1.5,1.9c-0.2,0.5-0.3,1-0.2,1.5c0.1,0.3,0.3,0.5,0.6,0.6C6.6,34.6,6.7,34.6,6.8,34.6 M24.6,30.9
		c0.1,0,0.1,0,0.2-0.1c0,0,0.1,0,0.1-0.1c0.5-0.3,1-0.7,1.3-1.2c0.2-0.3,0.3-0.7,0.3-1.1c-0.1,0.1-0.1,0.1-0.1,0.2
		c-0.5,0.7-1.1,1.4-1.7,2C24.6,30.8,24.4,30.8,24.6,30.9C24.5,30.9,24.5,30.9,24.6,30.9 M20.7,5C20.7,5,20.7,5,20.7,5
		c-0.1,0-0.1,0-0.1,0l-0.1,0l-0.1,0h-0.1l-0.2,0L20,5l-0.3,0l-0.1,0l-0.1,0l-0.1,0l-0.1,0l-0.1,0l-0.1,0c-0.6,0-1.1,0-1.5,0.1
		c-1.1,0.2-2.2,0.4-3.3,0.8c-0.7,0.2-1.4,0.5-2.3,0.9C11,7.3,9.8,7.9,8.7,8.5c-1.1,0.6-2.1,1.3-3,2c-1.1,0.8-2,1.7-2.9,2.6
		C2,14,1.4,14.9,0.9,15.8c-0.5,1-0.8,1.9-0.9,2.8c0,0.1,0,0.1,0,0.2v0.8c0,0.2,0,0.3,0.1,0.5c0,0.2,0,0.3,0.1,0.4
		c0.2,0.7,0.5,1.3,0.8,1.9c0.8,1.4,1.9,2.4,2.6,3c0.8,0.7,1.6,1.3,2.4,1.8c-0.9,0.6-1.9,1.3-2.8,2.2c-1.3,1.4-2,3-2,4.8
		c0,1.1,0.4,2.2,1.1,3c0.6,0.7,1.3,1.2,2.1,1.4c0.5,0.1,1.1,0.2,1.8,0.2l0.1,0c0.7,0,1.3-0.1,1.8-0.2c2.4-0.7,4.2-2.1,5.3-4.2
		c0.6,0.6,1.4,0.9,2.3,0.9c0.4,0,0.9-0.1,1.3-0.2c0.4-0.2,0.7-0.4,1.1-0.7c0.4,0.2,0.9,0.3,1.4,0.3c0.6,0,1.2-0.2,1.7-0.5
		c0.3-0.2,0.5-0.4,0.8-0.6c0.3,0.2,0.7,0.4,1.2,0.5c0.3,0,0.5,0.1,0.8,0.1c0.2,0,0.4,0,0.6,0c1.2-0.1,2.3-0.5,3.4-1.2
		c0.2-0.1,0.3-0.2,0.5-0.4c0.4,0.2,0.9,0.3,1.4,0.3c0.2,0,0.3,0,0.5,0c0.5-0.1,0.8-0.2,1.1-0.3l0.1,0c1.3-0.5,2.4-1.3,3.2-2.3
		c0.6-0.8,0.9-1.7,0.9-2.6c0.1,0,0.2,0,0.3,0l0.1,0c0.2,0,0.4,0,0.7,0l0.1,0c0.5,0.1,1,0.2,1.4,0.3c0.6,0.2,0.8,0.5,0.9,0.7
		c0,0.1,0.1,0.1,0.1,0.2c0,0-0.1,0.1-0.1,0.1l0,0c-0.1,0.1-0.3,0.2-0.4,0.3c-0.7,0.6-1,1.6-0.6,2.5c0.3,0.8,1.1,1.4,2,1.4
		c0,0,0.1,0,0.1,0c0.1,0,0.3,0,0.4,0c0.7-0.1,1.3-0.5,1.7-0.7c1.6-1.2,2-2.7,2-3.7c0,0,0,0,0,0c0-0.1,0-0.3,0-0.5
		c0-0.3-0.1-0.6-0.1-0.8c-0.4-1.6-1.3-2.9-2.8-3.8c-1.3-0.8-2.8-1.3-4.5-1.3c-0.5,0-1,0-1.5,0.1c-0.4,0-0.7,0.1-1.1,0.2
		c0-0.3,0-0.5,0-0.7c0.1-0.3,0.2-0.7,0.3-1.1l0-0.1c0.3-1,0-2-0.8-2.6c-0.3-0.3-0.7-0.4-1.1-0.5c-0.3-0.1-0.7-0.1-1-0.1
		c-0.6,0-1.2,0.1-1.8,0.3c-0.7,0.2-1.2,0.8-1.5,1.4c-0.1-0.1-0.2-0.2-0.4-0.2c-0.3-0.1-0.6-0.2-0.8-0.3c-0.2,0-0.4,0-0.6-0.1
		c0.6-0.7,1.2-1.4,1.7-2.2c1-1.7,1.4-3.4,1.3-5.2c-0.1-1-0.4-2-1-2.8c-0.8-1.2-1.9-2-3.4-2.6C23.7,5.4,22.4,5.1,21,5
		C20.9,5,20.8,5,20.7,5L20.7,5z M11.6,24.2c-0.2-0.2-0.4-0.4-0.6-0.5c-0.3-0.3-0.7-0.5-1-0.8c-0.7-0.5-1.3-1-1.9-1.5
		c-0.4-0.4-0.7-0.8-0.9-1.1c-0.2-0.3-0.3-0.8,0-1.6c0.2-0.6,0.6-1.2,1.2-1.8c0.7-0.7,1.6-1.5,2.8-2.2c2-1.3,3.8-2.1,5.6-2.7
		c0.9-0.3,1.7-0.5,2.6-0.6c0.4,0,0.8-0.1,1.2-0.1c0.4,0,0.7,0,1,0.1c0.6,0.1,1,0.2,1.3,0.4C22.9,11.9,23,12,23,12c0,0.1,0,0.3,0,0.4
		c-0.1,0.5-0.3,0.9-0.7,1.5c-0.7,1-1.7,1.8-2.9,2.4c-0.9,0.5-1.9,0.8-3,1c-0.6,0.1-1,0.1-1.4,0.1c-0.2,0-0.5,0-0.7-0.1
		c-0.5-0.1-0.8-0.2-1.1-0.4l0,0c-0.1-0.1-0.1-0.1-0.2-0.2c-0.5-0.4-1-0.7-1.6-0.7c-0.4,0-0.7,0.1-1,0.3c-0.7,0.4-1.3,1.2-1.1,2.4
		c0.1,0.6,0.3,1.1,0.7,1.6c0.8,1.1,2,1.9,3.5,2.3c0.2,0.1,0.5,0.1,0.8,0.2c-0.1,0.1-0.2,0.2-0.3,0.3C13.1,23.4,12.4,23.8,11.6,24.2
		L11.6,24.2z M21.5,21.7c0.3-0.1,0.5-0.2,0.8-0.3c0,0.1-0.1,0.2-0.1,0.3l-0.3,0.8c-0.1-0.2-0.2-0.4-0.3-0.6
		C21.6,21.7,21.6,21.7,21.5,21.7L21.5,21.7z"/>
</g>
</svg>
