<?xml version="1.0" encoding="utf-8"?>
<!-- Generator: Adobe Illustrator 23.0.4, SVG Export Plug-In . SVG Version: 6.00 Build 0)  -->
<svg version="1.1" id="レイヤー_1" xmlns="http://www.w3.org/2000/svg" xmlns:xlink="http://www.w3.org/1999/xlink" x="0px"
	 y="0px" viewBox="0 0 43.9 43.9" style="enable-background:new 0 0 43.9 43.9;" xml:space="preserve">
<style type="text/css">
	.st0{fill:#666666;}
	.st1{opacity:0.7;}
	.st2{fill:#F6CC4A;}
	.st3{fill:#FBE9A8;}
	.st4{fill:#F09F3A;}
	.st5{fill:#E57A2E;}
	.st6{fill:#F3B841;}
</style>
<path class="st0" d="M43.9,16.2L43.9,16.2C43.9,16.1,43.9,16.1,43.9,16.2c0-0.2,0-0.3-0.1-0.3c0,0,0-0.1-0.1-0.1c0,0,0-0.1-0.1-0.1
	l-8.7-12c0,0-0.1,0-0.1-0.1l-0.1-0.1c-0.1,0-0.1-0.1-0.2-0.1c-0.1,0-0.1,0-0.2-0.1h-0.1L22,2.2c0,0,0,0-0.1,0l0,0l0,0c0,0,0,0-0.1,0
	L9.7,3.4H9.6c-0.1,0-0.1,0-0.2,0.1L9.3,3.6c-0.1,0-0.1,0.1-0.2,0.1c0,0,0,0-0.1,0L0.2,15.6c0,0,0,0.1-0.1,0.1c0,0,0,0.1-0.1,0.1
	c0,0.1,0,0.2,0,0.3c0,0,0,0,0,0.1l0,0c0,0.1,0,0.2,0.1,0.3c0,0,0,0.1,0.1,0.1c0,0.1,0.1,0.1,0.1,0.2l21,24.6l0,0
	c0.1,0.1,0.2,0.2,0.3,0.2c0,0,0,0,0.1,0s0.2,0.1,0.4,0.1s0.2,0,0.4-0.1c0,0,0,0,0.1,0c0.1-0.1,0.2-0.1,0.3-0.2l0,0l21-24.6
	c0-0.1,0.1-0.1,0.1-0.2c0,0,0-0.1,0.1-0.1C43.9,16.4,43.9,16.3,43.9,16.2z M32.8,17.1L22,38.6L11.1,17.1H32.8z M11.8,15.2L22,4.6
	l10.1,10.6C32.1,15.2,11.8,15.2,11.8,15.2z M33.3,13.7l-8.9-9.4l8.8,0.8L33.3,13.7z M10.6,13.7l0.1-8.6l8.8-0.8L10.6,13.7z
	 M8.6,15.2H2.9l5.9-8L8.6,15.2z M9,17.1l8.6,17L3,17.1H9z M34.9,17.1h6l-14.5,17L34.9,17.1z M35.3,15.2l-0.1-8l5.9,8H35.3z"/>
<g class="st1">
	<polygon class="st2" points="33.2,5.1 24.4,4.3 33.3,13.7 	"/>
	<polygon class="st2" points="10.7,5.1 10.6,13.7 19.5,4.3 	"/>
	<polygon class="st3" points="32.1,15.2 22,4.6 11.8,15.2 	"/>
	<polygon class="st4" points="35.3,15.2 41.1,15.2 35.2,7.2 	"/>
	<polygon class="st4" points="8.8,7.2 2.9,15.2 8.6,15.2 	"/>
	<polygon class="st5" points="26.4,34.1 40.9,17.1 34.9,17.1 	"/>
	<polygon class="st6" points="11.1,17.1 22,38.6 32.8,17.1 	"/>
	<polygon class="st5" points="3,17.1 17.6,34.1 9,17.1 	"/>
</g>
</svg>
