<?xml version="1.0" encoding="utf-8"?>
<!-- Generator: Adobe Illustrator 23.0.4, SVG Export Plug-In . SVG Version: 6.00 Build 0)  -->
<svg version="1.1" id="レイヤー_1" xmlns="http://www.w3.org/2000/svg" xmlns:xlink="http://www.w3.org/1999/xlink" x="0px"
	 y="0px" viewBox="0 0 43.9 43.9" style="enable-background:new 0 0 43.9 43.9;" xml:space="preserve">
<style type="text/css">
	.st0{opacity:0.7;}
	.st1{fill:#2372B1;}
	.st2{fill:#666666;}
	.st3{fill:#FFFFFF;}
</style>
<g class="st0">
	<circle class="st1" cx="22" cy="22" r="20.9"/>
</g>
<g>
	<path class="st2" d="M22,43.8C9.9,43.8,0.1,34,0.1,22C0.1,9.9,9.9,0.1,22,0.1C34,0.1,43.8,9.9,43.8,22C43.8,34,34,43.8,22,43.8z
		 M22,2.1C11,2.1,2.1,11,2.1,22S11,41.8,22,41.8S41.8,32.9,41.8,22S32.9,2.1,22,2.1z"/>
</g>
<g>
	<path class="st3" d="M21.5,32.9H8.7c-0.4,0-0.7-0.2-0.9-0.5c-0.2-0.3-0.1-0.7,0.1-1l6.8-9.4l-6.6-8.5c-0.2-0.3-0.3-0.7-0.1-1.1
		c0.2-0.3,0.5-0.6,0.9-0.6h12.3c0.5,0,0.9,0.3,1,0.8l0.6,2.7c0.1,0.5-0.2,1.1-0.8,1.2c-0.5,0.1-1.1-0.2-1.2-0.8l-0.4-1.9H11l5.8,7.5
		c0.3,0.4,0.3,0.8,0,1.2l-6.1,8.4h10.1l0.9-2.6c0.2-0.5,0.7-0.8,1.3-0.6c0.5,0.2,0.8,0.7,0.6,1.3l-1.1,3.3
		C22.3,32.6,22,32.9,21.5,32.9z"/>
</g>
<g>
	<path class="st3" d="M29,23.4c-0.4,0-0.8-0.1-1.1-0.3c-1.2-0.7-2-1.9-2.2-3.5c-0.2-1.6,0.3-3.1,1.4-4.1c0.5-0.4,1.1-0.7,1.7-0.6
		c0.6,0,1.2,0.3,1.7,0.8c0.2,0.2,0.3,0.4,0.5,0.6l0.2-0.4c0.2-0.5,0.8-0.7,1.3-0.5c0.5,0.2,0.7,0.8,0.5,1.3l-0.7,1.4
		c0.4,0.7,0.8,1.6,1.2,2.5c0.3,0,0.6,0.2,0.8,0.5c0.3,0.5,0.2,1.1-0.3,1.4l-0.5,0.3c-0.3,0.2-0.6,0.2-0.9,0.1
		c-0.3-0.1-0.5-0.3-0.6-0.6c-0.1-0.4-0.3-0.7-0.4-1c-0.2,0.5-0.5,0.9-0.8,1.2C30.4,23.1,29.7,23.4,29,23.4z M28.8,17
		c-0.1,0-0.2,0-0.2,0.1c-0.6,0.5-0.9,1.4-0.8,2.4c0.1,0.9,0.5,1.6,1.1,1.9c0.1,0,0.4,0,0.4-0.1c0.4-0.5,0.9-1.6,0.9-2.7
		c-0.4-0.6-0.7-1.1-1.2-1.5C29,17,28.9,17,28.8,17C28.8,17,28.8,17,28.8,17z"/>
</g>
<g>
	<path class="st3" d="M32.7,33.8h-5.4c-0.6,0-1-0.4-1-1s0.4-1,1-1h5.4c0.6,0,1,0.4,1,1S33.3,33.8,32.7,33.8z"/>
</g>
<g>
	<circle class="st3" cx="30" cy="30.3" r="1"/>
</g>
<g>
	<circle class="st3" cx="30" cy="35.2" r="1"/>
</g>
</svg>
