<?xml version="1.0" encoding="utf-8"?>
<!-- Generator: Adobe Illustrator 23.0.3, SVG Export Plug-In . SVG Version: 6.00 Build 0)  -->
<svg version="1.1" id="レイヤー_1" xmlns="http://www.w3.org/2000/svg" xmlns:xlink="http://www.w3.org/1999/xlink" x="0px"
	 y="0px" viewBox="0 0 43.9 43.9" style="enable-background:new 0 0 43.9 43.9;" xml:space="preserve">
<style type="text/css">
	.st0{fill:#666666;}
</style>
<g>
	<g>
		<g>
			<path class="st0" d="M41.6,38.5H2.3c-1.2,0-2.2-1-2.2-2.2V7.5c0-1.2,1-2.2,2.2-2.2h39.3c1.2,0,2.2,1,2.2,2.2v28.8
				C43.8,37.6,42.8,38.5,41.6,38.5z M2.3,7.4c-0.1,0-0.1,0.1-0.1,0.1v28.8c0,0.1,0.1,0.1,0.1,0.1h39.3c0.1,0,0.1-0.1,0.1-0.1V7.5
				c0-0.1-0.1-0.1-0.1-0.1H2.3z"/>
		</g>
		<g>
			<path class="st0" d="M42.8,14.3H1.1c-0.6,0-1-0.5-1-1s0.5-1,1-1h41.6c0.6,0,1,0.5,1,1S43.3,14.3,42.8,14.3z"/>
		</g>
		<g>
			<circle class="st0" cx="4.7" cy="9.8" r="1"/>
		</g>
		<g>
			<circle class="st0" cx="7.7" cy="9.8" r="1"/>
		</g>
		<g>
			<circle class="st0" cx="10.7" cy="9.8" r="1"/>
		</g>
	</g>
	<g>
		<g>
			<path class="st0" d="M12.7,32.5c-0.4,0-0.8-0.2-1-0.5l-4.2-6.3c-0.3-0.4-0.3-0.9,0-1.3l4.2-6.3c0.4-0.6,1.1-0.7,1.7-0.3
				c0.6,0.4,0.7,1.1,0.3,1.7L10,24.9l3.7,5.7c0.4,0.6,0.2,1.3-0.3,1.7C13.2,32.4,13,32.5,12.7,32.5z"/>
		</g>
		<g>
			<path class="st0" d="M30.1,32.5c-0.2,0-0.5-0.1-0.7-0.2c-0.6-0.4-0.7-1.1-0.3-1.7l3.7-5.7L29,19.3c-0.4-0.6-0.2-1.3,0.3-1.7
				c0.6-0.4,1.3-0.2,1.7,0.3l4.2,6.3c0.3,0.4,0.3,0.9,0,1.3l-4.2,6.3C30.8,32.3,30.4,32.5,30.1,32.5z"/>
		</g>
		<g>
			<path class="st0" d="M21.7,28.8c-0.7,0-1.2-0.5-1.2-1.2v-1.9c0-1.1,0.9-1.5,1.5-1.8c0.8-0.4,1.6-0.8,1.6-2.6
				c0-0.5-0.2-0.9-0.5-1.2c-0.3-0.3-0.8-0.4-1.2-0.4c-0.2,0-1.7,0-1.7,1.6c0,0.7-0.5,1.2-1.2,1.2s-1.2-0.5-1.2-1.2
				c0-2.6,2.1-4,4.2-4s4.2,1.4,4.2,4c0,3.3-2,4.3-3,4.8c0,0-0.1,0-0.1,0v1.5C23,28.3,22.4,28.8,21.7,28.8z"/>
		</g>
		<g>
			<circle class="st0" cx="21.7" cy="31" r="1.2"/>
		</g>
	</g>
</g>
</svg>
