<?xml version="1.0" encoding="utf-8"?>
<!-- Generator: Adobe Illustrator 23.0.4, SVG Export Plug-In . SVG Version: 6.00 Build 0)  -->
<svg version="1.1" id="レイヤー_1" xmlns="http://www.w3.org/2000/svg" xmlns:xlink="http://www.w3.org/1999/xlink" x="0px"
	 y="0px" viewBox="0 0 43.9 43.9" style="enable-background:new 0 0 43.9 43.9;" xml:space="preserve">
<style type="text/css">
	.st0{opacity:0.7;}
	.st1{fill:#F1B852;}
	.st2{fill:#E8984B;}
	.st3{fill:#F8D366;}
	.st4{fill:#DC6D37;}
	.st5{fill:#666666;}
</style>
<g class="st0">
	<path class="st1" d="M17.3,18.6c-2.2,1.1-4.1,2.3-5.6,3.6c-1.9,1.6-3,3.2-3.2,4.4l11.1-3.9C18.7,21.3,18,19.9,17.3,18.6z"/>
	<path class="st2" d="M6.8,23l-3.9,1.4l2.8,3.2L6,27.5l0.4-0.1C6.2,26,6.3,24.5,6.8,23z"/>
	<path class="st1" d="M7.1,29.3l-0.8,0.3l-0.2,4.2l3.9-1.3C8.8,31.6,7.8,30.5,7.1,29.3z"/>
	<path class="st2" d="M21,29.2c-0.3-1.4-0.6-2.9-0.8-4.5l-11,3.9C11,29.9,15.4,30.3,21,29.2z"/>
	<path class="st3" d="M16.5,16.8c-0.2-0.4-0.4-0.9-0.5-1.3c-2,1.2-3.6,2.6-4.9,4.2c-0.4,0.5-0.8,1-1.1,1.5c0.2-0.2,0.3-0.3,0.5-0.5
		C12.1,19.3,14.1,18,16.5,16.8z"/>
	<path class="st1" d="M19.7,17.4c-0.2,0.1-0.4,0.2-0.6,0.3c0.2,0.4,0.4,0.9,0.7,1.3c0-0.1,0-0.2,0-0.3
		C19.8,18.3,19.8,17.9,19.7,17.4z"/>
	<path class="st3" d="M35.6,11.9c0.3,0,0.5,0,0.7,0c-0.6-0.2-1.2-0.4-1.8-0.5c-1.2-0.2-2.4-0.3-3.7-0.3c-2.8,0-5.8,0.5-8.8,1.6
		c-0.1,0.6-0.1,1.2-0.1,1.8c0.2-0.1,0.3-0.1,0.5-0.2C27,12.6,31.7,11.8,35.6,11.9z"/>
	<path class="st4" d="M23.6,7.3C23.6,7.3,23.6,7.3,23.6,7.3c-0.2,0-0.8,0.7-1.3,3.2c1-0.3,2-0.6,3-0.8C24.4,7.7,23.8,7.3,23.6,7.3z"
		/>
	<path class="st3" d="M19.9,13.5c-0.8,0.3-1.5,0.7-2.2,1c0.2,0.5,0.4,0.9,0.6,1.4c0.5-0.2,1-0.4,1.5-0.7c0-0.1,0-0.2,0-0.2
		c0-0.4,0-0.9,0.1-1.3C19.9,13.6,19.9,13.5,19.9,13.5z"/>
	<path class="st4" d="M19.9,11.3c-2-1.7-2.9-1.7-3-1.6c-0.1,0.1-0.4,0.8,0.2,2.9C18,12.1,18.9,11.7,19.9,11.3z"/>
	<path class="st1" d="M35.5,13.9c-0.2,0-0.4,0-0.6,0c-3.5,0-7.7,0.8-12,2.3c-0.4,0.1-0.8,0.3-1.2,0.4c0,1.7,0.1,3.5,0.2,5.3
		l18.8-6.6C39.8,14.5,38,13.9,35.5,13.9z"/>
	<path class="st2" d="M25.7,27.9c0.4-0.1,0.8-0.3,1.3-0.4c4.5-1.6,8.5-3.7,11.2-6.1c1.8-1.5,2.9-3,3.2-4.2l-18.7,6.6
		C23.6,25.3,24.6,26.7,25.7,27.9z"/>
	<path class="st4" d="M27.6,29.4c-0.2,0.1-0.4,0.1-0.6,0.2c0.5,0.5,0.9,1,1.4,1.5c4.4-1.6,8.1-4,10.5-6.9c0.6-0.7,1-1.4,1.4-2
		c-0.3,0.3-0.6,0.6-0.9,0.9C36.5,25.5,32.3,27.7,27.6,29.4z"/>
	<path class="st4" d="M30,32.6c2,1.6,2.9,1.7,3,1.6c0.1-0.1,0.4-0.8-0.2-2.9C32,31.8,31,32.2,30,32.6z"/>
	<path class="st2" d="M22.7,27.4c0.1,0.4,0.2,0.9,0.3,1.3c0.2-0.1,0.4-0.1,0.6-0.2C23.3,28.2,23,27.8,22.7,27.4z"/>
	<path class="st4" d="M26.3,36.6C26.3,36.6,26.3,36.6,26.3,36.6c0.2,0,0.8-0.7,1.3-3.2c-1,0.3-2,0.6-3,0.8
		C25.5,36.1,26.2,36.6,26.3,36.6z"/>
	<path class="st4" d="M15,31.9c-0.7,0-1.3,0-1.9-0.1c0.1,0,0.1,0.1,0.2,0.1c2.3,0.9,5.3,1.1,8.6,0.7c-0.1-0.5-0.3-1-0.4-1.5
		C19.2,31.6,17,31.9,15,31.9z"/>
	<path class="st4" d="M25,30.2c-0.5,0.1-1,0.3-1.5,0.4c0.2,0.6,0.3,1.1,0.5,1.6c0.8-0.1,1.6-0.3,2.3-0.5
		C25.9,31.3,25.4,30.8,25,30.2z"/>
</g>
<path class="st5" d="M43.2,15.5C43.2,15.5,43.2,15.4,43.2,15.5c0-0.1-0.1-0.2-0.1-0.2c-1.2-2.9-4-5-8.2-5.8C32.6,9,30,9,27.3,9.3
	c-1.1-2.8-2.5-4.2-3.9-4.1c-1.3,0.1-2.3,1.5-2.9,3.9c-2-1.5-3.6-2-4.7-1.2c-1.2,0.8-1.4,2.7-0.5,5.6c-2.3,1.4-4.3,3-5.8,4.8
	c-0.6,0.7-1,1.3-1.4,2l-7.1,2.7c-0.3,0.1-0.5,0.4-0.6,0.7c-0.1,0.3,0,0.7,0.2,0.9l3.9,4.5l-0.3,5.9c0,0.3,0.1,0.6,0.4,0.8
	c0.2,0.1,0.4,0.2,0.6,0.2c0.1,0,0.2,0,0.3,0l7.2-2.4c1.9,0.7,4.1,1,6.5,1c1.1,0,2.3-0.1,3.5-0.2c1.1,2.7,2.3,4,3.7,4
	c0.1,0,0.1,0,0.2,0c1.3-0.1,2.3-1.5,2.9-3.9c1.4,1,2.6,1.6,3.5,1.6c0.4,0,0.9-0.1,1.2-0.3c1.2-0.8,1.4-2.7,0.5-5.6
	c2.3-1.4,4.3-3,5.8-4.8C43.3,22.1,44.3,18.6,43.2,15.5C43.2,15.5,43.2,15.5,43.2,15.5z M23.6,7.3C23.6,7.3,23.6,7.3,23.6,7.3
	c0.2,0,0.8,0.5,1.7,2.4c-1,0.2-2,0.5-3,0.8C22.8,7.9,23.4,7.3,23.6,7.3z M21.9,12.7c3-1,6-1.6,8.8-1.6c1.3,0,2.5,0.1,3.7,0.3
	c0.6,0.1,1.2,0.3,1.8,0.5c-0.2,0-0.5,0-0.7,0c-3.8-0.1-8.5,0.8-13.3,2.4c-0.2,0.1-0.3,0.1-0.5,0.2C21.8,13.8,21.9,13.2,21.9,12.7z
	 M16.9,9.6c0.1-0.1,1.1,0,3,1.6c-1,0.4-1.9,0.8-2.8,1.3C16.5,10.5,16.8,9.7,16.9,9.6z M19.8,15c0,0.1,0,0.2,0,0.2
	c-0.5,0.2-1,0.4-1.5,0.7c-0.2-0.5-0.4-1-0.6-1.4c0.7-0.4,1.4-0.7,2.2-1c0,0.1,0,0.2,0,0.3C19.8,14.2,19.8,14.6,19.8,15z M19.8,19
	c-0.2-0.4-0.5-0.9-0.7-1.3c0.2-0.1,0.4-0.2,0.6-0.3c0,0.4,0,0.9,0,1.3C19.8,18.9,19.8,18.9,19.8,19z M11,19.7c1.3-1.5,3-3,4.9-4.2
	c0.2,0.4,0.3,0.8,0.5,1.3c-2.3,1.2-4.4,2.5-6,3.9c-0.2,0.2-0.4,0.3-0.5,0.5C10.2,20.7,10.6,20.2,11,19.7z M11.7,22.2
	c1.5-1.3,3.4-2.5,5.6-3.6c0.7,1.3,1.4,2.7,2.3,4.2L8.5,26.6C8.7,25.4,9.8,23.8,11.7,22.2z M5.7,27.6l-2.8-3.2L6.8,23
	c-0.5,1.5-0.6,3-0.3,4.4L6,27.5L5.7,27.6z M6.2,33.7l0.2-4.2l0.8-0.3c0.7,1.3,1.7,2.4,2.9,3.2L6.2,33.7z M9.3,28.5l11-3.9
	c0.2,1.6,0.5,3.1,0.8,4.5C15.4,30.3,11,29.9,9.3,28.5z M13.3,31.9c-0.1,0-0.1-0.1-0.2-0.1c0.6,0.1,1.2,0.1,1.9,0.1
	c1.9,0,4.1-0.3,6.5-0.7c0.1,0.5,0.3,1,0.4,1.5C18.7,33,15.7,32.7,13.3,31.9z M22,21.9c-0.2-1.8-0.2-3.6-0.2-5.3
	c0.4-0.2,0.8-0.3,1.2-0.4c4.3-1.5,8.5-2.3,12-2.3c0.2,0,0.4,0,0.6,0c2.5,0.1,4.3,0.6,5.3,1.5L22,21.9z M22.7,27.4
	c0.3,0.4,0.6,0.8,0.9,1.1c-0.2,0.1-0.4,0.1-0.6,0.2C22.9,28.3,22.8,27.9,22.7,27.4z M23.9,32.3c-0.2-0.5-0.3-1-0.5-1.6
	c0.5-0.1,1-0.3,1.5-0.4c0.4,0.5,0.9,1,1.3,1.5C25.5,32,24.7,32.1,23.9,32.3z M26.3,36.6C26.3,36.6,26.3,36.6,26.3,36.6
	c-0.2,0-0.8-0.4-1.7-2.4c1-0.2,2-0.5,3-0.8C27.2,35.9,26.5,36.6,26.3,36.6z M33.1,34.2c-0.1,0.1-1.1,0-3-1.6c1-0.4,1.9-0.8,2.8-1.3
	C33.4,33.4,33.2,34.1,33.1,34.2z M39,24.2c-2.4,2.9-6.2,5.3-10.5,6.9c-0.4-0.5-0.9-0.9-1.4-1.5c0.2-0.1,0.4-0.1,0.6-0.2
	c4.7-1.7,8.9-3.9,11.9-6.4c0.3-0.3,0.6-0.6,0.9-0.9C40,22.8,39.5,23.5,39,24.2z M38.2,21.5c-2.7,2.3-6.7,4.5-11.2,6.1
	c-0.4,0.2-0.9,0.3-1.3,0.4c-1-1.3-2-2.7-3-4.1l18.7-6.6C41.1,18.4,40,19.9,38.2,21.5z"/>
</svg>
