<?xml version="1.0" encoding="utf-8"?>
<!-- Generator: Adobe Illustrator 23.0.4, SVG Export Plug-In . SVG Version: 6.00 Build 0)  -->
<svg version="1.1" id="レイヤー_1" xmlns="http://www.w3.org/2000/svg" xmlns:xlink="http://www.w3.org/1999/xlink" x="0px"
	 y="0px" viewBox="0 0 100 100" style="enable-background:new 0 0 100 100;" xml:space="preserve">
<style type="text/css">
	.st0{fill:#FFEAEA;stroke:#FB5353;stroke-width:1.0859;stroke-miterlimit:10;}
	.st1{fill:#FFEAEA;stroke:#FB5353;stroke-width:1.0859;stroke-linejoin:round;stroke-miterlimit:10;}
	.st2{fill:#FCE8E6;}
	.st3{fill:#FFA1A1;}
	.st4{fill:#FB5353;}
	.st5{fill:none;stroke:#FB5353;stroke-linecap:round;stroke-linejoin:round;stroke-miterlimit:10;}
	.st6{fill:none;stroke:#FB5353;stroke-linejoin:round;stroke-miterlimit:10;}
	.st7{fill:#FFA1A1;stroke:#FB5353;stroke-linecap:round;stroke-linejoin:round;stroke-miterlimit:10;}
	.st8{fill:#FCE8E6;stroke:#FB5353;stroke-linejoin:round;stroke-miterlimit:10;}
</style>
<circle class="st0" cx="21.9" cy="13.6" r="3.9"/>
<path class="st1" d="M84.5,44.5c-0.3,1.4-1.2,2.6-2.7,3.5c1.5,1,2.4,2.1,2.7,3.5c0.3-1.4,1.2-2.6,2.7-3.5
	C85.7,47.1,84.8,45.9,84.5,44.5z"/>
<path class="st1" d="M7,6.6C6.7,8,5.8,9.2,4.3,10.1c1.5,1,2.4,2.1,2.7,3.5c0.3-1.4,1.2-2.6,2.7-3.5C8.3,9.1,7.4,8,7,6.6z"/>
<path class="st1" d="M62.7,14c-0.3,1.4-1.2,2.6-2.7,3.5c1.5,1,2.4,2.1,2.7,3.5c0.3-1.4,1.2-2.6,2.7-3.5C63.9,16.5,63,15.4,62.7,14z"
	/>
<circle class="st0" cx="66.7" cy="83.6" r="3"/>
<circle class="st0" cx="8.3" cy="61.5" r="3"/>
<circle class="st0" cx="35.4" cy="80.6" r="3"/>
<path class="st1" d="M95.6,1.5c-0.3,1.4-1.2,2.6-2.7,3.5c1.5,1,2.4,2.1,2.7,3.5C96,7.2,96.9,6,98.3,5.1C96.9,4.1,96,2.9,95.6,1.5z"
	/>
<path class="st1" d="M89.9,90.3c-0.3,1.4-1.2,2.6-2.7,3.5c1.5,1,2.4,2.1,2.7,3.5c0.3-1.4,1.2-2.6,2.7-3.5
	C91.2,92.9,90.2,91.7,89.9,90.3z"/>
<path class="st1" d="M15.6,86.6c-0.4,1.7-1.5,3.1-3.2,4.2c1.8,1.1,2.9,2.6,3.2,4.2c0.4-1.7,1.5-3.1,3.2-4.2
	C17.1,89.7,16,88.3,15.6,86.6z"/>
<g>
	<g>
		<path class="st2" d="M17.1,71.5c0,0.9,0.8,1.7,1.7,1.7h58.5c0.9,0,1.7-0.8,1.7-1.7V37.1H17.1V71.5z"/>
		<path class="st3" d="M77.3,26.9H18.8c-0.9,0-1.7,0.8-1.7,1.7v8.5H79v-8.5C79,27.7,78.3,26.9,77.3,26.9z"/>
	</g>
	<g>
		<circle class="st4" cx="23.4" cy="32" r="1.5"/>
		<circle class="st4" cx="27.9" cy="32" r="1.5"/>
		<circle class="st4" cx="32.4" cy="32" r="1.5"/>
	</g>
	<path class="st5" d="M18.8,26.9h58.5c0.9,0,1.7,0.8,1.7,1.7v42.9c0,0.9-0.8,1.7-1.7,1.7H18.8c-0.9,0-1.7-0.8-1.7-1.7V28.6
		C17.1,27.7,17.9,26.9,18.8,26.9z"/>
	<line class="st6" x1="17.1" y1="37.1" x2="79" y2="37.1"/>
</g>
<g>
	<g>
		<polygon class="st7" points="66,53.3 66.1,62 73.6,57.6 89.5,29.3 81.9,25 		"/>
		<polygon class="st8" points="66.1,62 73.6,57.6 66,53.3 		"/>
		<line class="st5" x1="69.8" y1="55.5" x2="85.7" y2="27.1"/>
		<g>
			<polygon class="st5" points="66.1,58.9 66.1,62 68.7,60.4 			"/>
		</g>
	</g>
</g>
<line class="st5" x1="73.6" y1="57.6" x2="66" y2="53.3"/>
</svg>
