<?xml version="1.0" encoding="utf-8"?>
<!-- Generator: Adobe Illustrator 23.0.4, SVG Export Plug-In . SVG Version: 6.00 Build 0)  -->
<svg version="1.1" id="レイヤー_1" xmlns="http://www.w3.org/2000/svg" xmlns:xlink="http://www.w3.org/1999/xlink" x="0px"
	 y="0px" viewBox="0 0 100 100" style="enable-background:new 0 0 100 100;" xml:space="preserve">
<style type="text/css">
	.st0{fill:#FFEAEA;stroke:#FB5353;stroke-width:1.0859;stroke-linejoin:round;stroke-miterlimit:10;}
	.st1{fill:#FFEAEA;stroke:#FB5353;stroke-width:1.0859;stroke-miterlimit:10;}
	.st2{fill:#FFA1A1;stroke:#FB5353;stroke-linecap:round;stroke-linejoin:round;stroke-miterlimit:10;}
	.st3{fill:#FCE8E6;stroke:#FB5353;stroke-linecap:round;stroke-linejoin:round;stroke-miterlimit:10;}
	.st4{fill:#FB5353;}
	.st5{fill:none;stroke:#FB5353;stroke-width:1.1335;stroke-linecap:round;stroke-linejoin:round;stroke-miterlimit:10;}
	.st6{fill:#FCE8E6;}
	.st7{fill:none;stroke:#FB5353;stroke-linecap:round;stroke-linejoin:round;stroke-miterlimit:10;}
</style>
<path class="st0" d="M84.5,44.5c-0.3,1.4-1.2,2.6-2.7,3.5c1.5,1,2.4,2.1,2.7,3.5c0.3-1.4,1.2-2.6,2.7-3.5
	C85.7,47.1,84.8,45.9,84.5,44.5z"/>
<path class="st0" d="M7,6.6C6.7,8,5.8,9.2,4.3,10.1c1.5,1,2.4,2.1,2.7,3.5c0.3-1.4,1.2-2.6,2.7-3.5C8.3,9.1,7.4,8,7,6.6z"/>
<path class="st0" d="M73.9,13.7c-0.3,1.4-1.2,2.6-2.7,3.5c1.5,1,2.4,2.1,2.7,3.5c0.3-1.4,1.2-2.6,2.7-3.5
	C75.1,16.3,74.2,15.1,73.9,13.7z"/>
<circle class="st1" cx="23.4" cy="91.9" r="3"/>
<circle class="st1" cx="43.2" cy="8.1" r="3"/>
<circle class="st1" cx="93.7" cy="5.1" r="3"/>
<circle class="st1" cx="74.4" cy="93.8" r="3"/>
<path class="st0" d="M49.5,24.3c-0.3,1.4-1.2,2.6-2.7,3.5c1.5,1,2.4,2.1,2.7,3.5c0.3-1.4,1.2-2.6,2.7-3.5
	C50.8,26.9,49.9,25.7,49.5,24.3z"/>
<path class="st0" d="M55.5,79c-0.3,1.4-1.2,2.6-2.7,3.5c1.5,1,2.4,2.1,2.7,3.5c0.3-1.4,1.2-2.6,2.7-3.5C56.8,81.5,55.9,80.3,55.5,79
	z"/>
<path class="st0" d="M88.1,70.3c-0.4,1.7-1.5,3.1-3.2,4.2c1.8,1.1,2.9,2.6,3.2,4.2c0.4-1.7,1.5-3.1,3.2-4.2
	C89.5,73.4,88.4,72,88.1,70.3z"/>
<g>
	<polygon class="st2" points="9.3,46.2 90.7,46.2 93.7,49.5 6.3,49.5 	"/>
	<rect x="70.8" y="47.2" class="st2" width="17.2" height="2.4"/>
	<path class="st2" d="M77.4,49.5h-47h-24v22.6h24v-4.3c0-2.2,1.8-3.9,3.9-3.9h39.1c2.2,0,3.9,1.8,3.9,3.9v4.3h16.3V49.5H77.4z"/>
	<rect x="8.2" y="31.1" class="st2" width="22.2" height="18.3"/>
	<rect x="30.3" y="32.2" class="st3" width="4.2" height="15.1"/>
	
		<rect x="66.6" y="34.8" transform="matrix(-1 -1.224647e-16 1.224647e-16 -1 137.4933 79.5444)" class="st3" width="4.2" height="9.9"/>
	
		<rect x="62" y="37.5" transform="matrix(-1 -1.224647e-16 1.224647e-16 -1 128.6865 79.5444)" class="st3" width="4.6" height="4.6"/>
	<polygon class="st2" points="11.2,27.8 27.3,27.8 30.3,31.1 8.2,31.1 	"/>
	<rect x="70.8" y="32.2" class="st2" width="17.2" height="15.1"/>
	<rect x="90.8" y="31.7" class="st2" width="2.9" height="16.2"/>
	<rect x="88.1" y="36.9" class="st2" width="2.7" height="5.8"/>
	<rect x="10.9" y="35.1" class="st3" width="16.5" height="7"/>
	<rect x="49.5" y="42.1" class="st2" width="7.5" height="7.5"/>
	<rect x="54.1" y="39.1" class="st3" width="2.9" height="2.9"/>
	<circle class="st4" cx="19.2" cy="38.6" r="0.9"/>
	<circle class="st4" cx="24.1" cy="38.6" r="0.9"/>
	<circle class="st4" cx="14.3" cy="38.6" r="0.9"/>
</g>
<g>
	<path class="st2" d="M2.7,33.6c8.1-14.2,18.7-16.4,31.7-6.4l5.8,28.6c-8.5,13-19.1,15-31.7,6.4L2.7,33.6z"/>
	<rect x="11.4" y="38.9" transform="matrix(0.98 -0.1989 0.1989 0.98 -8.407 5.1432)" class="st5" width="20.1" height="11"/>
	<rect x="12.9" y="40.5" transform="matrix(0.98 -0.1989 0.1989 0.98 -8.3759 5.1336)" class="st6" width="16.9" height="7.6"/>
	<line class="st7" x1="2.7" y1="33.6" x2="34.4" y2="27.2"/>
	<line class="st7" x1="40.2" y1="55.8" x2="8.5" y2="62.3"/>
	<circle class="st4" cx="6.3" cy="35.2" r="1"/>
	<circle class="st4" cx="9.9" cy="34.4" r="1"/>
	<circle class="st4" cx="13.6" cy="33.7" r="1"/>
	<circle class="st4" cx="17.2" cy="33" r="1"/>
	<circle class="st4" cx="20.8" cy="32.2" r="1"/>
	<circle class="st4" cx="24.4" cy="31.5" r="1"/>
	<circle class="st4" cx="28" cy="30.8" r="1"/>
	<circle class="st4" cx="31.6" cy="30" r="1"/>
	<circle class="st4" cx="11.3" cy="59.5" r="1"/>
	<circle class="st4" cx="14.9" cy="58.8" r="1"/>
	<circle class="st4" cx="18.5" cy="58" r="1"/>
	<circle class="st4" cx="22.1" cy="57.3" r="1"/>
	<circle class="st4" cx="25.7" cy="56.6" r="1"/>
	<circle class="st4" cx="29.3" cy="55.8" r="1"/>
	<circle class="st4" cx="32.9" cy="55.1" r="1"/>
	<circle class="st4" cx="36.6" cy="54.4" r="1"/>
	<path class="st3" d="M24.9,78.9l-4.6-22.8c-0.4-1.8,0.8-3.6,2.6-4l0.2,0c1.8-0.4,3.6,0.8,4,2.6l4.6,22.8L24.9,78.9z"/>
</g>
<g>
	
		<rect x="65.5" y="53.1" transform="matrix(0.9232 0.3844 -0.3844 0.9232 30.0033 -21.3839)" class="st2" width="5.9" height="22.5"/>
	<path class="st3" d="M84.5,26.9l4.5-0.1l0-2.5l-4.8-0.1c-4.1-0.1-6.6,4.3-4.5,7.8l0.4,0.6l-8.7,20.8l2.8,1.2l8.7-20.8l-1.1-2.3
		C80.7,29.4,82.2,27,84.5,26.9z"/>
	<polyline class="st3" points="91.7,24.9 99.4,24.7 99.5,25.7 91.7,26.2 	"/>
	<polygon class="st3" points="89.1,24.1 89,27.1 91.7,26.2 91.7,24.9 	"/>
	<polygon class="st3" points="67.5,55.1 64.9,52.9 66.4,49.2 69.8,49.5 	"/>
	<circle class="st3" cx="73.4" cy="54.3" r="3.1"/>
	<circle class="st4" cx="73.4" cy="54.3" r="0.5"/>
	
		<rect x="68.5" y="51.9" transform="matrix(0.9232 0.3844 -0.3844 0.9232 25.6382 -22.7335)" class="st4" width="2.3" height="1.8"/>
</g>
</svg>
