<?xml version="1.0" encoding="utf-8"?>
<!-- Generator: Adobe Illustrator 23.0.4, SVG Export Plug-In . SVG Version: 6.00 Build 0)  -->
<svg version="1.1" id="レイヤー_1" xmlns="http://www.w3.org/2000/svg" xmlns:xlink="http://www.w3.org/1999/xlink" x="0px"
	 y="0px" viewBox="0 0 102.3 102.3" style="enable-background:new 0 0 102.3 102.3;" xml:space="preserve">
<style type="text/css">
	.st0{fill-rule:evenodd;clip-rule:evenodd;fill:#FFFFFF;}
</style>
<path class="st0" d="M15.1,26.2L73.3,1.5C82.6-2.5,93.2,2,97,11.6c1.2,3.1,1.7,6.4,1.2,9.7l-8.9,64.9c-1.4,10.2-10.6,17.3-20.5,15.9
	c-3.2-0.5-6.3-1.8-8.8-3.9L10.7,58c-7.9-6.4-9.2-18.1-2.9-26.2C9.7,29.4,12.2,27.4,15.1,26.2z M57.7,56.7c-1.2,1.4-3.3,2.3-4.4,2.3
	c-3.4,0-4.8-2.9-5.7-6.4c4.5-1.4,7.3-5.3,7.3-10.1c0-5.9-3.9-11-11-11H28.5V65h7.6V53.1h4.6c0.4,3.5,2.9,12.5,11.1,12.5
	c3.5,0,6.4-1.5,9.1-3.7c2.4,2.3,6.1,3.7,10.7,3.7c3.4,0,8.2-1,11.8-4.8l-4.2-3.9c-1.8,1.6-4.4,2.9-7,2.9c-4.7,0-7.6-2.3-7.7-5.3
	h20.3c0-9.8-6.7-14.5-13.7-14.5c-8.1,0-13.9,5.7-13.9,12.9C57.1,54.2,57.3,55.5,57.7,56.7L57.7,56.7z M36.1,47.2v-9.4h6.7
	c2.7,0,4.3,1.9,4.3,4.7c0,2.8-1.6,4.7-4.3,4.7C42.9,47.2,36.1,47.2,36.1,47.2z M70.9,45.7c2.5,0,5.8,1.2,6.3,4.4H64.5
	C65.4,46.8,68.6,45.7,70.9,45.7z"/>
</svg>
