<?xml version="1.0" encoding="utf-8"?>
<!-- Generator: Adobe Illustrator 23.0.4, SVG Export Plug-In . SVG Version: 6.00 Build 0)  -->
<svg version="1.1" id="レイヤー_1" xmlns="http://www.w3.org/2000/svg" xmlns:xlink="http://www.w3.org/1999/xlink" x="0px"
	 y="0px" viewBox="0 0 100 100" style="enable-background:new 0 0 100 100;" xml:space="preserve">
<style type="text/css">
	.st0{fill:#FFEAEA;stroke:#FB5353;stroke-width:1.0859;stroke-miterlimit:10;}
	.st1{fill:#FFA1A1;}
	.st2{fill:#FFEAEA;}
	.st3{fill:none;stroke:#FB5353;stroke-width:2.1719;stroke-linecap:round;stroke-linejoin:round;stroke-miterlimit:10;}
	.st4{fill:none;stroke:#FB5353;stroke-width:1.0859;stroke-miterlimit:10;}
	.st5{fill:none;stroke:#FB5353;stroke-width:1.0859;stroke-linecap:round;stroke-miterlimit:10;}
	.st6{fill:#FFA1A1;stroke:#FB5353;stroke-width:1.0859;stroke-miterlimit:10;}
	.st7{fill:#FB5353;}
	.st8{fill:#FFEAEA;stroke:#FB5353;stroke-width:1.0859;stroke-linejoin:round;stroke-miterlimit:10;}
</style>
<circle class="st0" cx="32.2" cy="4.7" r="3.9"/>
<g>
	<g>
		<path class="st1" d="M15.3,64.7l0.3-43.3c0-1.2,1-2.2,2.2-2.2h64.7c1.2,0,2.2,1,2.2,2.2l-0.3,43.3"/>
		<path class="st1" d="M67.6,64.7h-7.4c-0.6,0-1.1,0.2-1.5,0.6l-1,1c-0.4,0.4-0.9,0.6-1.5,0.6H44.4c-0.6,0-1.1-0.2-1.5-0.6l-1-1
			c-0.4-0.4-0.9-0.6-1.5-0.6h-8H13c-1.2,0-2.2,1-2.2,2.2v2.3c0,1.2,1,2.2,2.2,2.2h19.4h35.2H87c1.2,0,2.2-1,2.2-2.2v-2.3
			c0-1.2-1-2.2-2.2-2.2H67.6z"/>
		<path class="st2" d="M77.2,59.4H22.8c-1.2,0-2.2-1-2.2-2.2V26.7c0-1.2,1-2.2,2.2-2.2h54.3c1.2,0,2.2,1,2.2,2.2v30.4
			C79.3,58.4,78.4,59.4,77.2,59.4z"/>
		<g>
			<polyline class="st3" points="40.4,35.4 35.9,42.2 40.4,49.1 			"/>
			<polyline class="st3" points="59.2,49.1 63.8,42.2 59.2,35.4 			"/>
			<line class="st3" x1="46" y1="49.1" x2="53.6" y2="35.4"/>
		</g>
		<rect x="39.1" y="64.7" class="st1" width="26" height="3.8"/>
		<path class="st4" d="M15.3,64.7l0.3-43.3c0-1.2,1-2.2,2.2-2.2h64.7c1.2,0,2.2,1,2.2,2.2l-0.3,43.3"/>
		<path class="st4" d="M67.6,64.7h-7.4c-0.6,0-1.1,0.2-1.5,0.6l-1,1c-0.4,0.4-0.9,0.6-1.5,0.6H44.4c-0.6,0-1.1-0.2-1.5-0.6l-1-1
			c-0.4-0.4-0.9-0.6-1.5-0.6h-8H13c-1.2,0-2.2,1-2.2,2.2v2.3c0,1.2,1,2.2,2.2,2.2h19.4h35.2H87c1.2,0,2.2-1,2.2-2.2v-2.3
			c0-1.2-1-2.2-2.2-2.2H67.6z"/>
		<path class="st4" d="M77.2,59.4H22.8c-1.2,0-2.2-1-2.2-2.2V26.7c0-1.2,1-2.2,2.2-2.2h54.3c1.2,0,2.2,1,2.2,2.2v30.4
			C79.3,58.4,78.4,59.4,77.2,59.4z"/>
	</g>
	<g>
		<path class="st1" d="M28.3,32.1L2.6,34.8c-1.2,0.1-2.1,1.2-1.9,2.4L5,78.7c0.1,1.2,1.2,2.1,2.4,1.9l25.7-2.7
			c1.2-0.1,2.1-1.2,1.9-2.4l-4.4-41.4C30.5,32.9,29.4,32,28.3,32.1z"/>
		<path class="st2" d="M20.4,36.7l-0.1,0.4c-0.3,0.8-1,1.4-1.9,1.5l-4.8,0.5c-0.9,0.1-1.7-0.3-2.1-1.1l-0.2-0.4
			c-0.4-0.8-1.3-1.2-2.1-1.1l-3.7,0.4c-1.2,0.1-2.1,1.2-1.9,2.4l3.9,36.8c0.1,1.2,1.2,2.1,2.4,1.9l20.5-2.2c1.2-0.1,2.1-1.2,1.9-2.4
			l-3.9-36.8c-0.1-1.2-1.2-2.1-2.4-1.9l-3.7,0.4C21.3,35.2,20.6,35.8,20.4,36.7z"/>
		<line class="st5" x1="15.4" y1="74.2" x2="23.9" y2="73.3"/>
		<path class="st4" d="M28.3,32.1L2.6,34.8c-1.2,0.1-2.1,1.2-1.9,2.4L5,78.7c0.1,1.2,1.2,2.1,2.4,1.9l25.7-2.7
			c1.2-0.1,2.1-1.2,1.9-2.4l-4.4-41.4C30.5,32.9,29.4,32,28.3,32.1z"/>
		<path class="st4" d="M20.4,36.7l-0.1,0.4c-0.3,0.8-1,1.4-1.9,1.5l-4.8,0.5c-0.9,0.1-1.7-0.3-2.1-1.1l-0.2-0.4
			c-0.4-0.8-1.3-1.2-2.1-1.1l-3.7,0.4c-1.2,0.1-2.1,1.2-1.9,2.4l3.9,36.8c0.1,1.2,1.2,2.1,2.4,1.9l20.5-2.2c1.2-0.1,2.1-1.2,1.9-2.4
			l-3.9-36.8c-0.1-1.2-1.2-2.1-2.4-1.9l-3.7,0.4C21.3,35.2,20.6,35.8,20.4,36.7z"/>
	</g>
	<g>
		<path class="st6" d="M99,36.6c0.1-0.9-0.5-1.7-1.4-1.8L71,32c-0.9-0.1-1.7,0.5-1.8,1.4l-0.3,2.9l29.8,3.1L99,36.6z"/>
		<path class="st6" d="M64.7,76.1c-0.1,0.9,0.5,1.7,1.4,1.8l26.6,2.8c0.9,0.1,1.7-0.5,1.8-1.4l0.8-7.7l-29.8-3.1L64.7,76.1z"/>
		<rect x="66" y="38.9" transform="matrix(0.1045 -0.9945 0.9945 0.1045 19.8434 129.8945)" class="st0" width="32.2" height="30"/>
		<g>
			<polygon class="st7" points="91.1,73.9 87.5,73.5 87.1,77.2 90.7,77.6 			"/>
			<path class="st7" d="M80.1,72.8c-1-0.1-1.9,0.6-2,1.6s0.6,1.9,1.6,2s1.9-0.6,2-1.6C81.9,73.8,81.1,72.9,80.1,72.8L80.1,72.8z"/>
			<polygon class="st7" points="72.8,71.7 68.9,73.4 72.3,75.9 			"/>
		</g>
	</g>
</g>
<circle class="st0" cx="28.3" cy="92.2" r="3"/>
<circle class="st0" cx="70.9" cy="89.9" r="3"/>
<circle class="st0" cx="61.5" cy="8.6" r="3"/>
<path class="st8" d="M6.2,6.4C5.9,7.8,5,9,3.5,9.9c1.5,1,2.4,2.1,2.7,3.5c0.3-1.4,1.2-2.6,2.7-3.5C7.4,8.9,6.5,7.8,6.2,6.4z"/>
<path class="st8" d="M95.3,1.2c-0.3,1.4-1.2,2.6-2.7,3.5c1.5,1,2.4,2.1,2.7,3.5c0.3-1.4,1.2-2.6,2.7-3.5C96.5,3.7,95.6,2.6,95.3,1.2
	z"/>
<path class="st8" d="M92.9,88.7c-0.3,1.4-1.2,2.6-2.7,3.5c1.5,1,2.4,2.1,2.7,3.5c0.3-1.4,1.2-2.6,2.7-3.5
	C94.2,91.3,93.3,90.1,92.9,88.7z"/>
<path class="st8" d="M5,89.9c-0.4,1.7-1.5,3.1-3.2,4.2c1.8,1.1,2.9,2.6,3.2,4.2c0.4-1.7,1.5-3.1,3.2-4.2C6.5,92.9,5.4,91.5,5,89.9z"
	/>
<path class="st8" d="M53.6,77.6c-0.4,1.7-1.5,3.1-3.2,4.2c1.8,1.1,2.9,2.6,3.2,4.2c0.4-1.7,1.5-3.1,3.2-4.2
	C55.1,80.6,54,79.2,53.6,77.6z"/>
</svg>
