<?xml version="1.0" encoding="utf-8"?>
<!-- Generator: Adobe Illustrator 24.0.3, SVG Export Plug-In . SVG Version: 6.00 Build 0)  -->
<svg version="1.1" id="レイヤー_1" xmlns="http://www.w3.org/2000/svg" xmlns:xlink="http://www.w3.org/1999/xlink" x="0px"
	 y="0px" viewBox="0 0 100 100" style="enable-background:new 0 0 100 100;" xml:space="preserve">
<style type="text/css">
	.st0{fill:#FFEAEA;stroke:#FB5353;stroke-width:1.0859;stroke-miterlimit:10;}
	.st1{fill:#FFEAEA;stroke:#FB5353;stroke-width:1.0859;stroke-linejoin:round;stroke-miterlimit:10;}
	.st2{fill:#FCE8E6;stroke:#FB5353;stroke-width:0.9782;stroke-miterlimit:10;}
	.st3{fill:#FFA1A1;}
	.st4{fill:none;stroke:#FB5353;stroke-width:0.9782;stroke-miterlimit:10;}
</style>
<circle class="st0" cx="90.2" cy="56.2" r="3.9"/>
<path class="st1" d="M15.7,36.5c-0.3,1.4-1.2,2.6-2.7,3.5c1.5,1,2.4,2.1,2.7,3.5c0.3-1.4,1.2-2.6,2.7-3.5
	C16.9,39.1,16,37.9,15.7,36.5z"/>
<path class="st1" d="M27.3,2.7c-0.3,1.4-1.2,2.6-2.7,3.5c1.5,1,2.4,2.1,2.7,3.5c0.3-1.4,1.2-2.6,2.7-3.5C28.6,5.2,27.6,4.1,27.3,2.7
	z"/>
<circle class="st0" cx="84.5" cy="89.2" r="3"/>
<circle class="st0" cx="95.7" cy="4.7" r="3"/>
<circle class="st0" cx="5" cy="4.7" r="3"/>
<path class="st1" d="M78.7,7.8c-0.3,1.4-1.2,2.6-2.7,3.5c1.5,1,2.4,2.1,2.7,3.5c0.3-1.4,1.2-2.6,2.7-3.5C80,10.3,79.1,9.1,78.7,7.8z
	"/>
<path class="st1" d="M21.1,88.7c-0.3,1.4-1.2,2.6-2.7,3.5c1.5,1,2.4,2.1,2.7,3.5c0.3-1.4,1.2-2.6,2.7-3.5
	C22.3,91.3,21.4,90.1,21.1,88.7z"/>
<path class="st1" d="M8,74.5c-0.4,1.7-1.5,3.1-3.2,4.2C6.6,79.9,7.7,81.3,8,83c0.4-1.7,1.5-3.1,3.2-4.2C9.5,77.6,8.4,76.2,8,74.5z"
	/>
<circle class="st2" cx="50" cy="50" r="33.6"/>
<g>
	<path class="st3" d="M47.1,62.9c-0.3-0.4-0.8-0.6-1.3-0.6c-0.3,0-0.5,0.2-0.6,0.4L45.1,63c-0.2,0.4-0.5,0.7-1,0.7h-1.9
		c-0.5,0-0.9-0.4-1-0.9c-0.9-0.3-1.9-0.1-2.6,0.5l-2.4,2.3c-0.5,0.3-0.7,0.9-0.7,1.4v3.1c0,1,0.8,1.7,1.7,1.7h5.4
		c0.6,0,1.2,0.3,1.5,0.9s0.9,0.9,1.5,0.9h1.6c0.5,0,0.9-0.2,1.2-0.5l1.5-1.4c0.3-0.3,0.5-0.8,0.5-1.3v-2.9c0-0.4-0.2-0.8-0.4-1.2
		L47.1,62.9z"/>
	<path class="st3" d="M37.4,56.6c-0.4,0-0.8,0.4-0.8,0.9v0.4c0,0.5,0.3,0.9,0.8,0.9h1.6c0.4,0,0.8-0.4,0.8-0.9v-0.4
		c0-0.5-0.3-0.9-0.8-0.9H37.4z"/>
	<path class="st3" d="M34.7,54.5h-1.9h-0.1c-0.4,0-0.8,0.4-0.8,0.9v1.2c0,0.5,0.2,0.9,0.5,0.9h0.1c0.4,0,0.3,0.4,0.3,0.9v0.6
		c0,0.5,0.3,0.9,0.8,0.9h1.1c0.4,0,0.7-0.4,0.7-0.9v-1.4v-2.1C35.5,54.9,35.1,54.5,34.7,54.5z"/>
	<path class="st3" d="M35.6,53.2h0.2c0.4,0,0.8,0.4,0.8,0.9v0.4c0,0.5,0.3,0.9,0.8,0.9H43c0.4,0,0.7-0.3,0.7-0.7l1.2-6.5
		c0-0.3,0-0.5-0.1-0.7c-0.1-0.2-0.4-0.3-0.6-0.3h-2.1c-0.4,0-0.7,0.3-0.7,0.7L41,50.1c-0.1,0.4-0.4,0.7-0.7,0.7h-4.7
		c-0.4,0-0.8,0.4-0.8,0.9v0.7C34.8,52.8,35.1,53.2,35.6,53.2z"/>
	<path class="st3" d="M42.8,46H46c0.4,0,0.7-0.3,0.7-0.7l0.5-2.9c0-0.3,0-0.5-0.2-0.7s-0.4-0.3-0.6-0.3h-3.3c-0.4,0-0.7,0.3-0.7,0.7
		L42,44.9c0,0.3,0,0.5,0.2,0.7C42.3,45.8,42.5,46,42.8,46z"/>
	<path class="st3" d="M83.6,50.1c0-9.4-3.8-17.8-10-23.9L63.3,26c-0.1,0-0.1,0-0.2,0l-3.2,0.4c-1.5,0.2-2.6,1.4-2.6,2.9
		c0,1.6,1.3,2.9,2.9,2.9h2.9c2.4,0,4.4,1.9,4.6,4.3c0.4,4.6,2.9,8.8,6.8,11.3l4.1,2.6c0.4,0.2,0.6,0.7,0.6,1.1
		c0,0.6-0.5,1.1-1.1,1.2l-7.2,1.1c-1.4,0.2-2.5,1.2-2.8,2.6l-0.4,1.6c-0.4,1.8,0.5,3.7,2.2,4.5c2.5,1.1,2.5,4.5,0.2,5.8l-3.4,1.7
		c-2.3,1.2-2.9,4.1-1.3,6.1l0.7,0.9c0.3,0.3,0.7,0.5,1.1,0.5l2.2-0.1C78,71.4,83.6,61.4,83.6,50.1z"/>
	<path class="st3" d="M31.3,42.5C30,39.9,32,36.8,34.9,37l2.2,0.1c0.6,0,1,0.6,0.8,1.2c-0.5,1.3,0.5,2.7,1.9,2.6
		c0.6-0.1,1.2-0.4,1.5-1l1.6-2.9c0.9-1.7,2.4-3,4.1-3.9l4.5-2.2c2.4-2.4,0.7-6.4-2.7-6.4l-20.6,0.2C21,30.8,16.4,39.9,16.4,50.1
		c0,2.8,0.3,5.5,1,8.1l11-6.3C31.6,50,32.9,45.9,31.3,42.5z"/>
</g>
<circle class="st4" cx="50" cy="50" r="33.6"/>
</svg>
