<?xml version="1.0" encoding="utf-8"?>
<!-- Generator: Adobe Illustrator 23.0.4, SVG Export Plug-In . SVG Version: 6.00 Build 0)  -->
<svg version="1.1" id="レイヤー_1" xmlns="http://www.w3.org/2000/svg" xmlns:xlink="http://www.w3.org/1999/xlink" x="0px"
	 y="0px" viewBox="0 0 100 100" style="enable-background:new 0 0 100 100;" xml:space="preserve">
<style type="text/css">
	.st0{fill:#FFEAEA;stroke:#FB5353;stroke-width:1.0859;stroke-miterlimit:10;}
	.st1{fill:#FFEAEA;stroke:#FB5353;stroke-width:1.0859;stroke-linejoin:round;stroke-miterlimit:10;}
	.st2{fill:#FCE8E6;stroke:#FB5353;stroke-width:0.9782;stroke-miterlimit:10;}
	.st3{fill:#FFA1A1;}
	.st4{fill:none;stroke:#FB5353;stroke-width:0.9782;stroke-miterlimit:10;}
</style>
<circle class="st0" cx="90.2" cy="56.2" r="3.9"/>
<path class="st1" d="M15.7,36.5c-0.3,1.4-1.2,2.6-2.7,3.5c1.5,1,2.4,2.1,2.7,3.5c0.3-1.4,1.2-2.6,2.7-3.5
	C16.9,39.1,16,37.9,15.7,36.5z"/>
<path class="st1" d="M27.3,2.7c-0.3,1.4-1.2,2.6-2.7,3.5c1.5,1,2.4,2.1,2.7,3.5c0.3-1.4,1.2-2.6,2.7-3.5C28.6,5.2,27.6,4.1,27.3,2.7
	z"/>
<circle class="st0" cx="84.5" cy="89.2" r="3"/>
<circle class="st0" cx="95.7" cy="4.7" r="3"/>
<circle class="st0" cx="5" cy="4.7" r="3"/>
<path class="st1" d="M78.7,7.8c-0.3,1.4-1.2,2.6-2.7,3.5c1.5,1,2.4,2.1,2.7,3.5c0.3-1.4,1.2-2.6,2.7-3.5C80,10.3,79.1,9.1,78.7,7.8z
	"/>
<path class="st1" d="M21.1,88.7c-0.3,1.4-1.2,2.6-2.7,3.5c1.5,1,2.4,2.1,2.7,3.5c0.3-1.4,1.2-2.6,2.7-3.5
	C22.3,91.3,21.4,90.1,21.1,88.7z"/>
<path class="st1" d="M8,74.5c-0.4,1.7-1.5,3.1-3.2,4.2C6.6,79.9,7.7,81.3,8,83c0.4-1.7,1.5-3.1,3.2-4.2C9.5,77.6,8.4,76.2,8,74.5z"
	/>
<g>
	<circle class="st2" cx="49.3" cy="50" r="33.6"/>
	<g>
		<path class="st3" d="M52.7,31.2l-26.4-5.5c-0.4-0.1-0.7,0-1,0.3c-6.4,6.4-9.9,14.9-9.9,23.9c0,3.4,0.5,6.8,1.5,10
			c0.1,0.3,0.3,0.5,0.5,0.6l3.1,1.7l2.3,4.4c0,0.1,0.1,0.1,0.2,0.1l0,0c0.1,0,0.1,0,0.2-0.1l0.6-0.6c0.1-0.1,0.1-0.2,0-0.3l-1.3-2.5
			l0.7,0.4c0.2,0.1,0.3,0.1,0.5,0.1c0.3,0,0.6-0.1,0.8-0.4l5-5.5c0.2-0.2,0.3-0.6,0.3-0.9L29,52.2c0-0.2,0-0.3,0.1-0.5
			c0.1-0.1,0.3-0.2,0.4-0.2h0.2c0.2,0,0.4,0.1,0.5,0.2l0.4,0.4c0.2,0.3,0.5,0.4,0.8,0.4H32c0.4,0,0.8-0.2,1-0.6l5.6-12
			c0.1-0.2,0.3-0.3,0.5-0.3H44c0,0.1-0.1,0.1-0.1,0.2l-1.5,4.1c-0.1,0.3-0.1,0.6,0.1,0.9c0.2,0.3,0.4,0.5,0.7,0.5l0.4,0.1
			c0.1,0,0.2,0,0.2,0c0.5,0,0.9-0.3,1-0.8l1.3-4.2c0.1-0.3,0-0.6-0.1-0.9h2.5c0.4,0,0.7-0.2,0.9-0.5l4.1-6.5c0.2-0.3,0.2-0.7,0.1-1
			C53.3,31.5,53,31.3,52.7,31.2z"/>
		<path class="st3" d="M39.3,73.2c-0.2-0.4-0.5-0.6-0.9-0.6s-0.8,0.2-1,0.5l0,0L37,73.7c-0.2,0.3-0.5,0.4-0.8,0.2l-0.7-0.4
			c-0.2-0.1-0.3-0.3-0.3-0.5v-1c0-0.6-0.5-1.1-1.1-1.1h-1c-0.3,0-0.6,0.1-0.8,0.3L28.4,75c-0.2,0.2-0.3,0.5-0.3,0.8s0.2,0.6,0.4,0.8
			c3.2,2.5,6.8,4.3,10.7,5.5c0.1,0,0.2,0,0.3,0c0.3,0,0.6-0.1,0.8-0.4l1.5-1.7c0.3-0.3,0.4-0.8,0.2-1.2L39.3,73.2z"/>
		<path class="st3" d="M77.8,31.6c-0.2-0.3-0.4-0.4-0.8-0.5l-15.8-2.3c-0.3,0-0.6,0-0.8,0.2l-3.1,2.5c-0.2,0.2-0.4,0.5-0.4,0.8
			s0.1,0.6,0.3,0.8l2,2.1c0.2,0.2,0.2,0.5,0,0.8l-1.5,1.9c-0.3,0.4-0.3,1,0,1.3l2,2.4c0.4,0.4,1,0.5,1.5,0.2L65,39
			c0.2-0.1,0.4-0.1,0.6-0.1l4.6,2.1c0.1,0.1,0.2,0.1,0.3,0.3l2.4,5c0.1,0.1,0.1,0.3,0,0.4l-0.5,2c-0.1,0.3,0,0.6,0.2,0.9l7.3,10
			c0.2,0.3,0.5,0.4,0.9,0.4c0.1,0,0.1,0,0.2,0c0.4-0.1,0.7-0.4,0.8-0.8c0.9-3,1.3-6.1,1.3-9.2C83.1,43.4,81.3,37.1,77.8,31.6z"/>
		<path class="st3" d="M33.6,67.9c-0.1,0.1-0.1,0.1-0.1,0.2s0.1,0.2,0.2,0.2l5.9,2.4c0.1,0.1,0.3,0.1,0.4,0.1c0.4,0,0.7-0.2,0.9-0.6
			l0.1-0.3c0.2-0.3,0.2-0.6,0-0.9s-0.4-0.5-0.7-0.6l-5-1.4c-0.3-0.1-0.7,0-1,0.2L33.6,67.9z"/>
		<path class="st3" d="M29.2,65.3c0-0.1-0.1-0.1-0.2-0.1h-0.9c-0.1,0-0.1,0-0.2,0.1l-1.8,1.6c-0.3,0.2-0.4,0.6-0.4,1
			c0.1,0.4,0.3,0.7,0.7,0.8l0.5,0.2c0.1,0,0.2,0,0.4,0c0.2,0,0.3,0,0.4-0.1c0.3-0.1,0.5-0.3,0.6-0.6l1-2.7
			C29.3,65.4,29.3,65.3,29.2,65.3z"/>
		<path class="st3" d="M38.8,48.8l-1.4-0.4c-0.1,0-0.1,0-0.2,0c-0.1,0-0.1,0.1-0.1,0.2l-0.3,1.1c0,0.1,0,0.3,0.2,0.3l0.9,0.3H38
			c0.1,0,0.1,0,0.2-0.1l0.8-0.9c0.1-0.1,0.1-0.2,0.1-0.2C38.9,48.9,38.9,48.9,38.8,48.8z"/>
		<path class="st3" d="M36.2,51.3L36,52c-0.1,0.2-0.2,0.3-0.5,0.4l-1.9,0.3c-0.1,0-0.2,0.1-0.2,0.2l-0.2,0.9c0,0.1,0,0.2,0.1,0.2
			c0,0.1,0.1,0.1,0.2,0.1l0,0l3.6-0.4c0.4,0,0.8-0.4,0.9-0.8l0.2-0.8c0.1-0.5-0.1-1-0.6-1.3c-0.3-0.1-0.6-0.1-0.9,0
			C36.5,50.8,36.3,51.1,36.2,51.3z"/>
		<path class="st3" d="M32.7,54.4v1.4c0,0.1,0.1,0.2,0.2,0.2h0.9c0.1,0,0.2-0.1,0.2-0.2l0.2-1.4c0-0.1,0-0.1-0.1-0.2
			c0-0.1-0.1-0.1-0.2-0.1h-1.1C32.8,54.2,32.7,54.3,32.7,54.4z"/>
		<path class="st3" d="M35.6,55.4c0.1,0,0.2-0.1,0.2-0.2v-0.8c0-0.1,0-0.1-0.1-0.2c-0.1,0-0.1-0.1-0.2-0.1l-0.9,0.1
			c-0.1,0-0.2,0.1-0.2,0.2l-0.1,0.7c0,0.1,0,0.1,0.1,0.2c0,0.1,0.1,0.1,0.2,0.1H35.6z"/>
		<path class="st3" d="M24.2,68.5l-3.9-3.8c0,0-0.1-0.1-0.2-0.1s-0.1,0-0.2,0.1l-0.4,0.4c-0.1,0.1-0.1,0.2,0,0.3l3.7,4.1
			c0,0.1,0.1,0.1,0.2,0.1l0,0c0.1,0,0.1,0,0.2-0.1l0.6-0.7C24.3,68.8,24.2,68.6,24.2,68.5z"/>
		<path class="st3" d="M27.4,69.8l-3,0.1c-0.1,0-0.2,0.1-0.2,0.2v0.6c0,0.1,0.1,0.2,0.2,0.2l3.1,0.1l0,0c0.1,0,0.1,0,0.2-0.1
			c0-0.1,0.1-0.1,0.1-0.2l-0.1-0.8C27.7,69.9,27.5,69.8,27.4,69.8z"/>
		<path class="st3" d="M29.5,67.6c-0.1,0-0.1,0.1-0.2,0.2L29,69.2c0,0.1,0,0.2,0,0.2c0,0.1,0.1,0.1,0.2,0.1H30c0.1,0,0.2,0,0.2-0.1
			l0.4-0.7c0.1-0.1,0-0.2,0-0.3l-0.9-0.7C29.7,67.6,29.6,67.6,29.5,67.6z"/>
		<path class="st3" d="M31.3,62.2c0.1-0.1,0.1-0.2,0-0.3l-0.8-1.6c0-0.1-0.1-0.1-0.2-0.1s-0.1,0-0.2,0l-0.8,0.5
			c-0.1,0-0.1,0.1-0.1,0.2s0,0.1,0,0.2l1.1,1.7c0,0.1,0.1,0.1,0.2,0.1l0,0c0.1,0,0.1,0,0.2-0.1L31.3,62.2z"/>
		<path class="st3" d="M49.2,79.5l-0.9,0.3c-0.1,0-0.2,0.1-0.2,0.2v2.8c0,0.1,0.1,0.2,0.2,0.2h0.9c0.1,0,0.2-0.1,0.2-0.2v-3
			c0-0.1,0-0.2-0.1-0.2S49.3,79.5,49.2,79.5z"/>
	</g>
	<circle class="st4" cx="49.3" cy="50" r="33.6"/>
</g>
</svg>
