<?xml version="1.0" encoding="utf-8"?>
<!-- Generator: Adobe Illustrator 23.0.6, SVG Export Plug-In . SVG Version: 6.00 Build 0)  -->
<svg version="1.1" id="レイヤー_1" xmlns="http://www.w3.org/2000/svg" xmlns:xlink="http://www.w3.org/1999/xlink" x="0px"
	 y="0px" viewBox="0 0 68.4 42.5" style="enable-background:new 0 0 68.4 42.5;" xml:space="preserve">
<style type="text/css">
	.st0{fill:#404040;}
</style>
<path class="st0" d="M1.1,0.7h6.8v15.7c0,3.3,1.1,4.9,3.3,4.9h12.2c2.2,0,3.3-1.6,3.3-4.9V0.7h6.8v20.8c-0.8,4.1-2.6,5.7-6.3,6.5
	c-0.3,0.1-0.7,0.1-1,0.1h-5.5v13.7h-6.8V28.1H8.4c-0.3,0-0.6,0-0.9-0.1c-3.7-0.8-5.2-1.8-6.4-6.5V0.7z"/>
<polygon class="st0" points="52,0.7 36.3,0.7 36.3,7.5 48.6,7.5 48.6,41.8 52,41.8 55.4,41.8 55.4,7.5 67.3,7.5 67.3,0.7 "/>
<circle class="st0" cx="31.1" cy="38.6" r="3.2"/>
<circle class="st0" cx="64.2" cy="38.6" r="3.2"/>
</svg>
