<?xml version="1.0" encoding="utf-8"?>
<!-- Generator: Adobe Illustrator 24.0.3, SVG Export Plug-In . SVG Version: 6.00 Build 0)  -->
<svg version="1.1" id="レイヤー_1" xmlns="http://www.w3.org/2000/svg" xmlns:xlink="http://www.w3.org/1999/xlink" x="0px"
	 y="0px" viewBox="0 0 68.4 42.5" style="enable-background:new 0 0 68.4 42.5;" xml:space="preserve">
<style type="text/css">
	.st0{fill:#404040;}
	.st1{fill:#FFFFFF;}
</style>
<g>
	<path class="st0" d="M13.9,41.8l0-13.8l-5.5,0c-0.3,0-0.6,0-0.9-0.1c-3.8-0.8-5.2-1.9-6.4-6.5l0-20.8l6.8,0l0,15.7
		c0,3.3,1.1,4.9,3.3,4.9h12.2c2.2,0,3.3-1.6,3.3-4.9V0.7l6.8,0l0,20.8c-0.8,4-2.4,5.7-6.3,6.5c-0.3,0.1-0.7,0.1-1,0.1h-5.5l0,13.7
		H13.9z"/>
	<path class="st1" d="M33.5,0.7v20.8c-0.8,4.1-2.6,5.7-6.3,6.5c-0.3,0.1-0.7,0.1-1,0.1h-5.5v13.7h-6.8V28.1H8.4
		c-0.3,0-0.6,0-0.9-0.1c-3.7-0.8-5.2-1.8-6.4-6.5V0.7h6.8v15.7c0,3.3,1.1,4.9,3.3,4.9h12.2c2.2,0,3.3-1.6,3.3-4.9V0.7H33.5
		 M33.6,0.6L33.6,0.6h-6.9h-0.1v0.1v15.7c0,3.2-1,4.8-3.2,4.8H11.2C9,21.2,8,19.6,8,16.4V0.7V0.6H7.9H1.1H1v0.1v20.8
		c1.2,4.7,2.7,5.8,6.5,6.6c0.3,0.1,0.6,0.1,0.9,0.1h5.4v13.6v0.1h0.1h6.8h0.1v-0.1V28.2h5.4c0.3,0,0.7,0,1-0.1
		c3.9-0.8,5.6-2.6,6.4-6.6l0-20.8V0.6L33.6,0.6z"/>
</g>
<g>
	<polygon class="st0" points="48.6,41.8 48.5,7.5 36.3,7.5 36.2,0.7 52,0.7 67.3,0.7 67.3,7.5 55.4,7.5 55.5,41.8 	"/>
	<path class="st1" d="M67.3,0.7v6.8H55.4v34.3H52h-3.4V7.5H36.3V0.7H52H67.3 M67.4,0.6L67.4,0.6H52H36.3h-0.1v0.1v6.8v0.1h0.1h12.2
		v34.2v0.1h0.1H52h3.4h0.1v-0.1V7.6h11.8h0.1V7.5V0.7V0.6L67.4,0.6z"/>
</g>
<g>
	<path class="st0" d="M31.1,41.8c-1.8,0-3.2-1.5-3.2-3.2s1.5-3.2,3.2-3.2s3.2,1.5,3.2,3.2S32.9,41.8,31.1,41.8z"/>
	<path class="st1" d="M31.1,35.4c1.8,0,3.2,1.4,3.2,3.2s-1.4,3.2-3.2,3.2c-1.8,0-3.2-1.4-3.2-3.2S29.3,35.4,31.1,35.4 M31.1,35.3
		c-1.8,0-3.3,1.5-3.3,3.3s1.5,3.3,3.3,3.3s3.3-1.5,3.3-3.3S32.9,35.3,31.1,35.3L31.1,35.3z"/>
</g>
<g>
	<path class="st0" d="M64.2,41.8c-1.8,0-3.2-1.5-3.2-3.2s1.5-3.2,3.2-3.2s3.2,1.5,3.2,3.2S66,41.8,64.2,41.8z"/>
	<path class="st1" d="M64.2,35.4c1.8,0,3.2,1.4,3.2,3.2s-1.4,3.2-3.2,3.2S61,40.4,61,38.6S62.4,35.4,64.2,35.4 M64.2,35.3
		c-1.8,0-3.3,1.5-3.3,3.3s1.5,3.3,3.3,3.3c1.8,0,3.3-1.5,3.3-3.3S66,35.3,64.2,35.3L64.2,35.3z"/>
</g>
</svg>
