<?xml version="1.0" encoding="utf-8"?>
<!-- Generator: Adobe Illustrator 23.0.4, SVG Export Plug-In . SVG Version: 6.00 Build 0)  -->
<svg version="1.1" id="レイヤー_1" xmlns="http://www.w3.org/2000/svg" xmlns:xlink="http://www.w3.org/1999/xlink" x="0px"
	 y="0px" viewBox="0 0 66.2 41.1" style="enable-background:new 0 0 66.2 41.1;" xml:space="preserve">
<style type="text/css">
	.st0{fill:#404040;}
</style>
<path class="st0" d="M0,0h6.8v15.7c0,3.3,1.1,4.9,3.3,4.9h12.2c2.2,0,3.3-1.6,3.3-4.9V0h6.8v20.8c-0.8,4.1-2.6,5.7-6.3,6.5
	c-0.3,0.1-0.7,0.1-1,0.1h-5.5v13.7h-6.8V27.4H7.3c-0.3,0-0.6,0-0.9-0.1c-3.7-0.8-5.2-1.8-6.4-6.5V0z"/>
<polygon class="st0" points="50.9,0 35.2,0 35.2,6.8 47.5,6.8 47.5,41.1 50.9,41.1 54.3,41.1 54.3,6.8 66.2,6.8 66.2,0 "/>
<circle class="st0" cx="30" cy="38" r="3.2"/>
<circle class="st0" cx="63.1" cy="38" r="3.2"/>
</svg>
